<?xml version="1.0" encoding="utf-8"?>
<!-- Generator: Adobe Illustrator 16.0.0, SVG Export Plug-In . SVG Version: 6.00 Build 0)  -->
<!DOCTYPE svg PUBLIC "-//W3C//DTD SVG 1.1//EN" "http://www.w3.org/Graphics/SVG/1.1/DTD/svg11.dtd">
<svg version="1.1" id="Layer_1" xmlns="http://www.w3.org/2000/svg" xmlns:xlink="http://www.w3.org/1999/xlink" x="0px" y="0px"
	 width="691.166px" height="634.004px" viewBox="0 0 691.166 634.004" enable-background="new 0 0 691.166 634.004"
	 xml:space="preserve">
<g>
	<path fill-rule="evenodd" clip-rule="evenodd" fill="#007EA2" d="M382.836,189.339c11.76,37.883,2.572,55.94-26.953,68.214
		c-34.127,14.188-76.482,25.86-96.107,52.653c-18.476,25.227-12.825,68.625-16.348,104.178
		c-5.893,59.531-10.58,119.188-15.921,178.776c-1.181,13.196-2.972,26.329-4.651,40.958c-41.701,0-81.441,0-124.695,0
		c-2.718-47.534-5.836-94.53-7.883-141.562c-0.83-19.078-5.678-32.227-25.922-40.059c-8.888-3.438-18.008-18.51-18.656-28.836
		c-2.265-35.982-1.327-72.213-0.773-108.336c0.919-60.547,45.34-86.039,98.898-58.319c8.367,4.335,21.271,4.952,30.38,2.021
		C243.408,236.734,312.184,213.124,382.836,189.339z"/>
	<path fill-rule="evenodd" clip-rule="evenodd" fill="#007EA2" d="M266.297,444.403c-6.898-26.981,10.857-23.313,24.797-23.33
		c101.176-0.12,202.352-0.069,303.527-0.069c11.225,0,22.457,0,36.418,0c0-124.221,0-246.396,0-371.354
		c-189.209,0-379.336,0-570.117,0c-14.934,68.447,13.08,141.771-16.197,208.306c-3.73-0.258-7.461-0.527-11.184-0.786
		c0-68.474,0-136.944,0-206.641C20.722,48.181,11.039,46.407,0,44.383C0,29.73,0,15.791,0,0.114c230.352,0,460.008,0,691.166,0
		c0,15.06,0,28.999,0,44.415c-9.646,1.472-18.545,2.827-31.859,4.864c0,130.826,0,262.281,0,395.01
		C526.111,444.403,397.313,444.403,266.297,444.403z"/>
	<path fill-rule="evenodd" clip-rule="evenodd" fill="#007EA2" d="M221.462,161.865c-0.313,34.909-26.146,60.578-60.907,60.522
		c-33.854-0.054-61.576-27.556-61.479-60.981c0.104-33.158,28.175-60.612,61.969-60.596
		C195.165,100.831,221.773,127.722,221.462,161.865z"/>
</g>
</svg>
