<?xml version="1.0" encoding="utf-8"?>
<!-- Generator: Adobe Illustrator 16.0.0, SVG Export Plug-In . SVG Version: 6.00 Build 0)  -->
<!DOCTYPE svg PUBLIC "-//W3C//DTD SVG 1.1//EN" "http://www.w3.org/Graphics/SVG/1.1/DTD/svg11.dtd">
<svg version="1.1" id="Layer_1" xmlns="http://www.w3.org/2000/svg" xmlns:xlink="http://www.w3.org/1999/xlink" x="0px" y="0px"
	 width="529.123px" height="634.518px" viewBox="0 0 529.123 634.518" enable-background="new 0 0 529.123 634.518"
	 xml:space="preserve">
<g>
	<path fill-rule="evenodd" clip-rule="evenodd" fill="#007EA2" d="M127.086,402.608c91.564,0,182.533,0,274.223,0
		c-1.381,13.799-2.693,27.277-4.088,40.748c-4.262,41.171-8.537,82.338-12.838,123.506c-1.736,16.642-3.475,33.284-5.355,49.91
		c-1.264,11.174-9.35,17.91-21.539,17.93c-41.219,0.063-82.438,0.045-123.658,0.05c-20.5,0.001-41-0.002-61.502-0.034
		c-14.818-0.022-21.711-6.664-23.188-21.188c-4.01-39.424-8.32-78.815-12.457-118.229
		C133.465,464.654,130.332,434.002,127.086,402.608z"/>
	<path fill-rule="evenodd" clip-rule="evenodd" fill="#007EA2" d="M466.303,317.7c-0.406-13.469-0.613-25.925-6.236-37.598
		c-1.658-3.438-3.604-5.17-7.836-5.6c-16.473-1.678-28.129-14.143-28.9-30.064c-0.725-14.984,9.957-28.441,25.336-31.911
		c12.225-2.76,25.299,2.85,32.535,13.962c7.111,10.914,6.926,24.8-1.289,35.244c-2.951,3.751-2.359,6.265-1.162,10.46
		c3.232,11.332,5.367,22.989,7.615,34.581c0.613,3.152,0.096,6.523,0.096,10.924c7.889,0,15.053-0.051,22.219,0.011
		c13.336,0.113,19.957,6.575,19.889,19.923c-0.139,26.51,2.906,18.549-14.859,36.666c-13.74,14.014-27.816,27.697-41.559,41.709
		c-4.803,4.896-10.236,7.196-17.082,7.051c-10.766-0.227-21.539-0.06-33.234-0.06c0.67-8.319,1.279-16.113,1.932-23.904
		c0.184-2.195,0.578-4.377,0.713-6.574c0.516-8.497-2.512-11.797-10.943-11.807c-34.4-0.038-68.801-0.048-103.201-0.051
		c-64.395-0.004-128.785,0.02-193.178-0.003c-11.449-0.004-14.139,2.879-13.035,14.231c0.887,9.131,1.715,18.27,2.621,27.961
		c-13.324,0-25.867,0.481-38.334-0.282c-3.912-0.238-8.32-3.104-11.301-6c-17.393-16.903-34.629-33.981-51.408-51.489
		c-3.135-3.27-4.732-8.604-5.635-13.261c-0.949-4.888-0.268-10.103-0.203-15.174c0.156-12.013,6.918-18.895,18.92-18.919
		c38.814-0.083,77.623-0.07,116.436-0.067c108.277,0.007,216.551,0.027,324.828,0.041C461.791,317.701,463.537,317.7,466.303,317.7z
		"/>
	<path fill-rule="evenodd" clip-rule="evenodd" fill="#007EA2" d="M211.635,192.203c9.561,22.072,19.225,44.383,29.631,68.411
		c4.682-11.406,8.783-21.08,12.486-30.907c0.406-1.083-1.168-3.418-2.402-4.529c-6.887-6.188-8.645-14.021-7.77-22.785
		c0.084-0.86,0.449-1.701,0.73-2.537c2.539-7.608,12.566-10.953,26.561-8.867c10.588,1.577,13.934,4.731,14.189,13.909
		c0.217,8.021-1.693,15.229-8.314,20.648c-1.184,0.97-2.303,3.548-1.838,4.768c3.662,9.615,7.717,19.081,12.322,30.219
		c10.389-23.972,20.113-46.408,29.596-68.285c18.668,6.278,36.805,12.183,54.783,18.54c5.344,1.89,10.445,4.711,15.285,7.709
		c8.314,5.149,13.959,12.729,14.273,22.578c0.572,18.011,0.162,36.052,0.162,54.508c-91.459,0-182.592,0-274.211,0
		c0-18.449-0.453-36.688,0.186-54.889c0.326-9.254,5.514-16.888,13.531-21.591c6.973-4.089,14.396-7.631,21.992-10.393
		C178.703,202.94,194.82,197.844,211.635,192.203z"/>
	<path fill-rule="evenodd" clip-rule="evenodd" fill="#007EA2" d="M327.822,73.87c9.592,2.852,11.697,6.141,9.533,16.707
		c-1.053,5.142-2.061,10.502-4.396,15.1c-1.605,3.164-5.123,6.565-8.4,7.382c-4.426,1.104-5.275,3.494-6.313,7.048
		c-7.209,24.697-22.604,41.354-47.941,47.958c-8.639,2.251-16.652-0.228-24.186-4.129c-18.547-9.606-30.918-24.285-36.268-44.75
		c-0.561-2.146-3.182-3.872-5.078-5.527c-3.01-2.626-7.703-4.417-9.029-7.649c-2.703-6.594-4.248-13.836-5.141-20.953
		c-0.932-7.443,4.367-10.355,11.338-11.29c0-8.937-0.861-17.78,0.168-26.398c2.699-22.583,14.416-32.94,37.109-34.056
		c1.959-0.097,3.916-0.229,6.168-0.358c1.236-7.421,5.057-12.513,12.887-12.698c23.748-0.567,56.469,10.273,65.676,42.932
		C326.646,52.755,326.551,63.115,327.822,73.87z"/>
</g>
</svg>
