<?xml version="1.0" encoding="utf-8"?>
<!-- Generator: Adobe Illustrator 16.0.0, SVG Export Plug-In . SVG Version: 6.00 Build 0)  -->
<!DOCTYPE svg PUBLIC "-//W3C//DTD SVG 1.1//EN" "http://www.w3.org/Graphics/SVG/1.1/DTD/svg11.dtd">
<svg version="1.1" id="Layer_1" xmlns="http://www.w3.org/2000/svg" xmlns:xlink="http://www.w3.org/1999/xlink" x="0px" y="0px"
	 width="378.227px" height="494.712px" viewBox="0 0 378.227 494.712" enable-background="new 0 0 378.227 494.712"
	 xml:space="preserve">
<path fill-rule="evenodd" clip-rule="evenodd" fill="#007EA2" d="M379.099,247.829c0,76.643,0.001,153.284-0.001,229.927
	c-0.002,12.716-4.535,17.197-17.412,17.197c-114.263,0.002-228.525,0.002-342.788,0c-13.504,0-18.025-4.496-18.025-17.9
	c0-153.084,0-306.168,0-459.252c0-12.98,4.622-17.554,17.771-17.554c114.263-0.005,228.524-0.005,342.787,0
	c13.044,0,17.668,4.632,17.669,17.656C379.099,94.546,379.099,171.188,379.099,247.829z M29.612,28.676
	c0,146.255,0,291.966,0,437.68c107.271,0,214.025,0,320.747,0c0-146.087,0-291.798,0-437.68
	C243.253,28.676,136.666,28.676,29.612,28.676z M249.292,388.682c-2.188,5.305-4.154,10.076-7.034,17.063
	c1.898,1.359,4.883,3.087,7.352,5.371c3.17,2.932,3.108,6.244-0.066,9.379c-3.698,3.65-7.414,7.291-10.994,11.057
	c-3.674,3.863-7.141,3.568-10.892,0.09c-2.26-2.096-5.047-5.677-7.2-5.408c-4.581,0.57-9.098,2.877-13.202,5.238
	c-1.145,0.656-0.99,3.984-1.018,6.094c-0.129,9.623-1.01,10.547-10.755,10.561c-3.998,0.006-7.997-0.033-11.997-0.001
	c-5.007,0.041-7.215-2.532-7.339-7.408c-0.079-3.137,0.681-7.781-1.002-9.085c-3.644-2.822-8.508-4.383-13.104-5.482
	c-1.477-0.355-3.896,2.136-5.522,3.7c-6.474,6.229-8.01,6.302-14.257,0.089c-2.836-2.82-5.691-5.62-8.474-8.492
	c-4.512-4.66-4.529-6.908,0.129-11.566c1.827-1.825,3.992-3.313,5.905-4.874c-2.406-5.883-4.418-10.802-6.679-16.325
	c-2.894,0-6.055-0.039-9.217,0.008c-4.744,0.07-7.013-2.439-7.124-6.971c-0.124-4.996-0.045-9.995-0.053-14.995
	c-0.01-5.38,2.374-8.14,8.057-7.919c2.927,0.111,7.441,0.616,8.514-0.939c2.758-3.996,4.44-8.937,5.564-13.732
	c0.33-1.41-2.505-3.722-4.121-5.398c-5.768-5.989-5.804-7.969,0.07-13.896c2.956-2.98,5.958-5.917,8.896-8.916
	c3.616-3.693,7.263-4.006,10.793-0.014c1.981,2.239,3.707,4.705,5.157,6.568c6.27-2.57,11.05-4.531,16.114-6.607
	c0.101-0.709,0.339-1.676,0.362-2.647c0.339-13.591,0.332-13.647,13.571-13.577c17.82,0.096,15.879-1.851,16.833,16.195
	c4.815,1.979,9.735,4.001,16.188,6.652c1.577-2.004,3.405-4.652,5.564-6.995c3.19-3.461,6.603-3.243,9.886,0.021
	c3.544,3.524,7.012,7.128,10.632,10.572c4.01,3.815,3.963,7.44,0.094,11.338c-2.063,2.078-5.641,4.764-5.335,6.666
	c0.765,4.793,2.882,9.583,5.462,13.754c0.827,1.339,4.791,0.934,7.327,0.982c7.719,0.148,9.149,1.449,9.247,9.057
	c0.056,4.398-0.017,8.799,0.011,13.197c0.032,5.164-2.317,7.828-7.667,7.619C255.01,388.588,252.04,388.682,249.292,388.682z
	 M220.604,373.708c-0.03-16.275-13.091-29.415-29.273-29.449c-16.221-0.034-29.497,13.088-29.562,29.22
	c-0.064,16.502,13.232,29.852,29.646,29.76C207.62,403.146,220.633,389.98,220.604,373.708z M209.263,178.185
	c35.571,0,70.675,0,105.867,0c0-33.07,0-65.767,0-98.757c-35.413,0-70.495,0-105.867,0
	C209.263,112.872,209.263,145.562,209.263,178.185z M67.301,200.829c0,6.766,0,13.067,0,19.337c82.868,0,165.349,0,247.984,0
	c0-6.578,0-12.739,0-19.337C232.184,200.829,149.712,200.829,67.301,200.829z M315.217,269.56c0-6.596,0-12.736,0-19.219
	c-82.771,0-165.296,0-248.063,0c0,6.485,0,12.627,0,19.219C150.146,269.56,232.627,269.56,315.217,269.56z M172.372,101.329
	c0-6.681,0-12.97,0-19.4c-35.293,0-70.18,0-105.264,0c0,6.588,0,12.749,0,19.4C102.538,101.329,137.441,101.329,172.372,101.329z
	 M172.44,140.835c0-6.444,0-12.736,0-19.339c-35.226,0-70.114,0-105.266,0c0,6.521,0,12.679,0,19.339
	C102.129,140.835,137.168,140.835,172.44,140.835z M172.266,180.479c0-6.775,0-13.063,0-19.408c-35.247,0-69.98,0-105.034,0
	c0,6.614,0,12.911,0,19.408C102.731,180.479,137.632,180.479,172.266,180.479z"/>
</svg>
