<?xml version="1.0" encoding="utf-8"?>
<!-- Generator: Adobe Illustrator 16.0.0, SVG Export Plug-In . SVG Version: 6.00 Build 0)  -->
<!DOCTYPE svg PUBLIC "-//W3C//DTD SVG 1.1//EN" "http://www.w3.org/Graphics/SVG/1.1/DTD/svg11.dtd">
<svg version="1.1" id="Layer_1" xmlns="http://www.w3.org/2000/svg" xmlns:xlink="http://www.w3.org/1999/xlink" x="0px" y="0px"
	 width="637.598px" height="570.497px" viewBox="0 0 637.598 570.497" enable-background="new 0 0 637.598 570.497"
	 xml:space="preserve">
<g>
	<path fill-rule="evenodd" clip-rule="evenodd" fill="#007EA2" d="M461.901,506.122c0.404,3.1,0.08,6.298,0.049,9.449
		c-0.343,34.002-20.705,54.55-54.673,54.589c-96.546,0.113-193.092,0.043-289.638,0.044c-20.886,0-41.772,0.086-62.656-0.023
		c-33.219-0.176-53.735-20.293-54.716-53.517c-0.105-3.544-0.043-7.093-0.043-10.64C0.222,358.644,0.196,211.264,0.292,63.883
		c0.006-7.842,0.426-15.782,1.687-23.508C5.3,20.021,21.992,3.997,42.46,1.269C49.854,0.282,57.37-0.194,64.83-0.2
		c110.732-0.091,221.465-0.118,332.197,0.038c9.406,0.013,19.047,0.369,28.168,2.41c20.968,4.691,35.729,24.351,36.579,48.199
		c0.591,16.529,0.24,33.098,0.09,49.646c-0.064,7.105-17.994,33.15-24.281,34.118c-6.893,1.062-6.412-4.374-6.458-7.461
		c-0.303-20.093-0.155-40.193-0.194-60.29c-0.008-4.727,0.113-9.479-0.312-14.175c-1.192-13.176-9.075-20.739-22.384-21.047
		c-13.784-0.317-27.582-0.107-41.374-0.108c-101.274-0.004-202.548-0.01-303.823,0.005c-25.708,0.003-31.667,5.813-31.67,30.976
		c-0.017,148.563-0.014,297.126,0.004,445.688c0.003,25.171,5.557,30.838,30.303,30.844c112.703,0.025,225.406,0.026,338.108-0.001
		c23.131,0,31.298-14.647,31.298-40.53c0,0,0.322-119.141,0.322-126.796c0-4.134,3.075-6.022,6.65-7.3
		c5.177-1.849,10.48-3.485,15.396-5.896c6.574-3.225,8.626-0.744,8.488,5.636c-0.051,2.362,0.241,4.752-0.005,7.089L461.901,506.122
		z"/>
	<path fill-rule="evenodd" clip-rule="evenodd" fill="#007EA2" d="M422.11,338.633c-0.787-0.011-1.576,0.014-2.362-0.015
		c-30.505-1.057-67.984-47.165-60.892-74.755c1.823-7.09,5.381-12.98,10.36-18.231c57.436-60.56,114.952-121.042,172.085-181.887
		c6.457-6.877,12.021-8.278,20.52-4.747c35.709,14.841,60.921,39.657,74.596,76.065c2.713,7.223,1.609,12.285-4.308,17.621
		c-62.019,55.91-120.339,115.675-180.38,173.648C443.425,334.353,433.885,339.113,422.11,338.633z"/>
	<path fill-rule="evenodd" clip-rule="evenodd" fill="#007EA2" d="M229.354,479.165c8.953-10.076,18.819-21.711,29.28-32.787
		c8.65-9.158,17.934-17.729,27.068-26.421c7.466-7.105,13.396-15.224,26.778-13.003c10.546,1.749,20.813-11.642,20.153-22.063
		c-0.742-11.736-10.152-20.524-21.873-20.432c-12.114,0.096-21.244,8.238-21.04,20.614c0.137,8.246-2.521,14.181-8.043,19.849
		c-20.621,21.163-40.998,42.564-61.524,63.821c-0.65,0.673-1.938,0.73-3.049,1.116c-1.08-3.868,1.377-6.297,2.758-8.901
		c18.845-35.529,31.385-73.011,34.865-113.229c0.508-5.873,2.403-9.162,8.223-11.159c29.078-9.979,57.766-20.979,84.885-35.618
		c5.092-2.75,8.652-1.848,12.502,2.1c10.731,10.999,21.555,21.918,32.639,32.56c4.419,4.244,5.014,8.049,2.106,13.472
		c-14.375,26.805-25.292,55.09-35.116,83.814c-1.781,5.208-4.208,9.052-10.544,9.305c-42.744,1.701-81.332,17.047-118.665,36.44
		C229.753,479.165,228.616,479.428,229.354,479.165z"/>
	<path fill-rule="evenodd" clip-rule="evenodd" fill="#007EA2" d="M229.657,123.415c-42.545,0-85.091,0.005-127.637-0.01
		c-3.543-0.003-7.137,0.201-10.618-0.302c-7.964-1.155-13.066-5.771-13.495-13.96c-0.438-8.403,4.781-13.055,12.423-14.896
		c3.382-0.815,7.04-0.652,10.574-0.653c86.272-0.032,172.545-0.035,258.817-0.004c3.531,0.001,7.207-0.181,10.563,0.691
		c7.772,2.019,12.125,7.116,11.519,15.503c-0.567,7.844-5.297,12.441-12.719,13.201c-7.803,0.799-15.734,0.412-23.61,0.418
		C306.868,123.431,268.263,123.415,229.657,123.415z"/>
	<path fill-rule="evenodd" clip-rule="evenodd" fill="#007EA2" d="M361.666,213.426c2.316,4.393-2.269,6.403-5.269,9.402
		c-13.896,13.895-25.306,19.46-43.988,19.173c-69.221-1.065-138.468-0.423-207.703-0.427c-3.541,0-7.091,0.111-10.62-0.106
		c-9.469-0.584-16.239-4.992-16.091-15.056c0.148-10.029,6.95-14.541,16.482-14.594c27.536-0.152,55.074-0.083,82.611-0.096
		c16.128-0.007,32.258-0.001,48.387,0c42.094,0,84.185-0.026,126.277,0.05"/>
	<path fill-rule="evenodd" clip-rule="evenodd" fill="#007EA2" d="M158.85,329.922c20.439-0.009,40.878-0.04,61.316,0.012
		c5.478,0.014,12.344-0.774,10.64,7.978c-1.533,7.866,4.088,19.626-9.982,21.549c-5.021,0.687-10.203,0.227-15.313,0.228
		c-33.803,0.011-67.605,0.009-101.408,0c-3.145,0-6.303,0.124-9.429-0.128c-10.822-0.873-17.766-7.144-16.771-15.782
		c1.145-9.971,7.75-13.87,17.273-13.855C116.399,329.954,137.625,329.933,158.85,329.922z"/>
	<path fill-rule="evenodd" clip-rule="evenodd" fill="#007EA2" d="M135.488,477.736c-12.964,0-25.934,0.242-38.891-0.071
		c-11.968-0.291-18.851-6.115-18.798-15.098c0.053-9.076,6.779-14.338,19.019-14.377c29.856-0.098,59.718,0.212,89.569-0.156
		c9.969-0.123,11.434,3.197,7.77,11.851c-7.403,17.479-7.584,17.886-26.848,17.901c-10.606,0.008-21.215,0.001-31.821,0.001
		C135.488,477.77,135.488,477.752,135.488,477.736z"/>
	<path fill-rule="evenodd" clip-rule="evenodd" fill="#007EA2" d="M351.753,211.772c3.418,0.005,9.141-0.379,9.913,1.653
		c1.764,4.642-2.269,6.403-5.269,9.402"/>
</g>
</svg>
