<?xml version="1.0" encoding="utf-8"?>
<!-- Generator: Adobe Illustrator 16.0.0, SVG Export Plug-In . SVG Version: 6.00 Build 0)  -->
<!DOCTYPE svg PUBLIC "-//W3C//DTD SVG 1.1//EN" "http://www.w3.org/Graphics/SVG/1.1/DTD/svg11.dtd">
<svg version="1.1" id="Layer_1" xmlns="http://www.w3.org/2000/svg" xmlns:xlink="http://www.w3.org/1999/xlink" x="0px" y="0px"
	 width="505.517px" height="505.101px" viewBox="0 0 505.517 505.101" enable-background="new 0 0 505.517 505.101"
	 xml:space="preserve">
<path fill-rule="evenodd" clip-rule="evenodd" fill="#89D4E5" d="M251.563,505.101C112.04,504.894-1.271,391.399,0.011,251.081
	C1.317,108.054,117.464-1.233,257.134,0.011C393.19,1.222,505.749,115.718,505.517,254.378
	C505.284,392.808,391.337,505.304,251.563,505.101z M339.644,175.772c2.297,6.877,4.414,13.818,6.922,20.617
	c10.586,28.693,2.953,52.953-22.504,69.928c-5.602,3.736-11.676,6.943-17.877,9.588c-34.783,14.818-70.967,15.697-107.631,9.814
	c-14.711-2.361-29.275-5.654-43.92-8.523c-0.332,1.881-0.764,2.705-0.535,3.268c16.365,40.506,32.674,81.039,49.488,121.357
	c0.971,2.322,6.617,4.723,9.248,4.008c23.936-6.523,48.42-11.906,71.324-21.137c40.711-16.404,75.387-40.887,95.178-82.273
	C401.499,256.073,384.245,205.987,339.644,175.772z M253.569,284.96c-3.158-8.568-6.045-15.281-8.115-22.236
	c-5.789-19.439-13.018-38.67-16.451-58.541c-6.922-40.063,11.326-61.209,52.029-62.27c13.521-0.354,27.082,1.211,40.633,1.672
	c3.66,0.123,7.348-0.584,13.818-1.16c-4.506-3.637-6.248-5.707-8.467-6.734c-26.199-12.111-53.469-20.672-82.441-22.188
	c-45.672-2.391-76.668,14.936-92.17,52.537c-13.619,33.025-8.305,66.596,0.65,99.721c0.648,2.41,5.545,4.523,8.797,5.219
	c9.191,1.963,18.545,3.184,27.854,4.572C210.394,278.64,231.095,281.653,253.569,284.96z M297.243,248.153
	c26.717,0.354,42.92-20.074,34.436-43.414c-8.078-22.225-37.816-40.389-61.395-37.502c-20.979,2.568-32.98,20.42-27.299,40.602
	C249.263,230.138,273.079,247.833,297.243,248.153z"/>
</svg>
