<?xml version="1.0" encoding="utf-8"?>
<!-- Generator: Adobe Illustrator 16.0.0, SVG Export Plug-In . SVG Version: 6.00 Build 0)  -->
<!DOCTYPE svg PUBLIC "-//W3C//DTD SVG 1.1//EN" "http://www.w3.org/Graphics/SVG/1.1/DTD/svg11.dtd">
<svg version="1.1" id="Layer_1" xmlns="http://www.w3.org/2000/svg" xmlns:xlink="http://www.w3.org/1999/xlink" x="0px" y="0px"
	 width="509.309px" height="634.518px" viewBox="0 0 509.309 634.518" enable-background="new 0 0 509.309 634.518"
	 xml:space="preserve">
<g>
	<path fill-rule="evenodd" clip-rule="evenodd" fill="#007EA2" d="M278.922,438.671c-16.315,0-31.967,0-48.599,0
		c-4.639,17.949-9.467,36.567-14.258,55.194c-9.939,38.658-19.82,77.331-29.808,115.977c-4.097,15.859-13.989,23.961-27.547,22.882
		c-15.675-1.247-25.304-15.99-21.1-32.869c5.099-20.49,10.55-40.894,15.815-61.343c10.535-40.896,21.258-81.749,31.345-122.756
		c1.582-6.426,0.222-13.576,0.222-21.247c-3.232,0-5.996,0.001-8.766,0.001c-40.758-0.001-81.516,0.027-122.271-0.01
		c-33.721-0.032-53.2-19.544-53.212-53.338c-0.03-82.289-0.186-164.578,0.229-246.866c0.049-9.532,1.938-19.641,5.527-28.44
		c6.498-15.943,19.322-24.25,36.986-24.191c11.543,0.041,23.086,0.009,35.573,0.009c0-6.682-0.083-12.537,0.019-18.389
		c0.26-14.937,7.595-22.357,22.382-22.363c102.67-0.037,205.337-0.04,308.003,0.006c14.246,0.006,21.776,7.715,21.89,22.006
		c0.045,5.885,0.007,11.771,0.007,18.736c10.797,0,21.01-0.001,31.221,0.001c27.057,0.008,43.348,14.41,46.578,41.256
		c0.43,3.577,0.789,7.191,0.792,10.789c0.045,82.804,0.081,165.61,0.007,248.415c-0.021,26.436-13.824,45.221-37.502,50.931
		c-5.186,1.25-10.729,1.374-16.109,1.389c-40.498,0.109-80.999,0.059-121.5,0.059c-2.802,0-5.604,0-10.729,0
		c0.888,10.706,0.373,20.982,2.756,30.537c14.588,58.462,29.865,116.756,44.826,175.125c3.05,11.901-0.401,21.938-9.244,28.174
		c-8.24,5.812-19.589,6.834-27.376,0.091c-5.269-4.563-9.871-11.51-11.662-18.222c-14.497-54.23-28.256-108.659-42.241-163.027
		C280.474,444.456,279.732,441.731,278.922,438.671z M255.591,93.713c-58.283,0-116.565-0.006-174.847,0.012
		c-3.349,0-6.722-0.047-10.044,0.307c-6.86,0.73-10.473,4.121-10.461,11.623c0.132,71.691,0.132,143.385,0.004,215.078
		c-0.013,7.543,3.782,10.788,10.547,11.598c2.805,0.335,5.666,0.236,8.501,0.238c117.337,0.009,234.677,0.009,352.015,0.001
		c2.578,0,5.17,0.066,7.73-0.179c8.208-0.788,10.944-3.68,10.95-11.751c0.024-71.693-0.065-143.385,0.126-215.076
		c0.021-7.667-3.613-10.802-10.404-11.536c-3.322-0.361-6.695-0.303-10.044-0.305C371.64,93.707,313.616,93.713,255.591,93.713z"/>
	<path fill-rule="evenodd" clip-rule="evenodd" fill="#007EA2" d="M236.083,210.865c0,18.039,0.37,36.087-0.1,54.112
		c-0.496,19.105-14.021,34.261-31.58,36.462c-23.025,2.887-40.463-6.646-46.228-25.545c-1.188-3.895-1.991-8.078-2.01-12.131
		c-0.158-35.304-0.306-70.611-0.003-105.913c0.138-15.97,7.057-28.817,22.182-35.036c15.416-6.335,30.846-5.508,44.434,5.456
		c9.471,7.646,13.268,18.112,13.325,30.024c0.083,17.523,0.021,35.047,0.021,52.57C236.109,210.865,236.098,210.865,236.083,210.865
		z"/>
	<path fill-rule="evenodd" clip-rule="evenodd" fill="#007EA2" d="M341.405,233.084c0,10.568,0.289,21.146-0.061,31.703
		c-0.721,21.566-15.846,36.297-37.615,37.051c-23.513,0.816-40.291-11.912-41.535-34.105c-1.307-23.364-1.271-46.919,0.071-70.283
		c1.241-21.616,18.056-34.334,41.183-33.76c21.252,0.529,36.823,15.152,37.811,36.146c0.517,11.06,0.092,22.164,0.092,33.249
		C341.368,233.084,341.387,233.084,341.405,233.084z"/>
</g>
</svg>
