<?xml version="1.0" encoding="utf-8"?>
<!-- Generator: Adobe Illustrator 16.0.0, SVG Export Plug-In . SVG Version: 6.00 Build 0)  -->
<!DOCTYPE svg PUBLIC "-//W3C//DTD SVG 1.1//EN" "http://www.w3.org/Graphics/SVG/1.1/DTD/svg11.dtd">
<svg version="1.1" id="Layer_1" xmlns="http://www.w3.org/2000/svg" xmlns:xlink="http://www.w3.org/1999/xlink" x="0px" y="0px"
	 width="497.803px" height="490.025px" viewBox="0 0 497.803 490.025" enable-background="new 0 0 497.803 490.025"
	 xml:space="preserve">
<g>
	<path fill-rule="evenodd" clip-rule="evenodd" fill="#007EA2" d="M270.777,194.448c9.482-1.774,15.863,2.743,21.798,8.319
		c7.605,7.148,8.176,17.329,1.451,25.316c-6.946,8.255-13.987,16.436-20.726,24.859c-1.422,1.776-2.356,4.451-2.401,6.733
		c-0.242,12.14-0.116,24.285-0.141,36.43c-0.016,8.018-4.065,13.847-12.01,15.104c-10.211,1.616-20.705,2.67-28.712-6.895
		c-10.377,12.376-20.476,24.556-30.725,36.609c-15.164,17.834-30.602,35.438-45.627,53.388
		c-24.436,29.193-48.616,58.6-72.942,87.884c-7.06,8.5-17.175,9.395-25.894,2.432c-1.447-1.157-2.892-2.322-4.293-3.535
		c-7.397-6.394-8.961-13.277-4.4-22.073c3.328-6.42,7.236-12.542,10.952-18.757c4.927-8.244,10.023-16.389,14.769-24.735
		c0.718-1.263,0.617-3.985-0.275-5.021c-13.373-15.498-24.609-32.43-34.513-50.298c-74.282-134.014-0.194-312.267,160.83-348.392
		c4.435-0.994,8.893-1.938,13.383-2.626c9.151-1.403,14.113,2.975,14.104,12.165c-0.019,17.203-0.023,34.407-0.003,51.609
		c0.006,5.701,1.295,6.85,6.708,6.959c4.868,0.1,6.412-2.215,6.37-6.857c-0.151-17.539-0.07-35.081-0.047-52.621
		c0.01-7.525,4.131-11.638,11.448-11.529c7.145,0.104,11.103,4.113,11.114,11.38c0.025,16.866,0.008,33.731,0.008,50.598
		c0,7.818,0.908,9.053,6.627,9.021c5.539-0.033,6.384-1.27,6.382-9.297c-0.004-16.867-0.011-33.734,0-50.6
		c0.003-6.876,3.97-10.912,10.875-11.124c7.11-0.218,11.79,3.842,11.812,10.776c0.089,28.672,0.027,57.344,0.045,86.015
		c0.005,6.089-2.094,11.304-6.74,15.195c-3.072,2.572-6.302,5.798-9.952,6.673c-8.943,2.142-9.705,7.719-9.445,15.52
		C271.166,159.894,270.777,176.747,270.777,194.448z M170.73,309.97c0.289-0.487,0.627-1.293,1.162-1.932
		c18.309-21.813,36.674-43.578,54.878-65.479c1.229-1.479,1.768-3.954,1.774-5.97c0.105-32.534-0.07-65.07,0.214-97.603
		c0.049-5.47-1.267-8.081-6.651-10.149c-15.122-5.807-19.469-12.932-19.471-29.233c0-4.046,0.07-8.092,0.018-12.136
		c-0.018-1.23-0.338-2.455-0.625-4.39c-59.206,20.126-99.356,58.479-116.559,118.348c-15.218,52.958-4.898,102.079,26.778,147.679
		c7.925-13.001,15.331-25.236,22.826-37.417c5.556-9.027,13.454-11.883,23.388-8.107C162.49,305.111,166.171,307.559,170.73,309.97z
		"/>
	<path fill-rule="evenodd" clip-rule="evenodd" fill="#007EA2" d="M124.574,453.783c13.594-16.202,26.785-31.96,40.019-47.683
		c5.96-7.081,5.997-7.048,14.431-3.182c101.078,46.35,219.694-16.053,238.843-125.652c13.714-78.495-28.021-155.531-101.343-186.792
		c-3.481-1.484-4.688-3.15-4.647-6.985c0.209-20.571,0.078-41.149,0.064-61.724c0-2.167,0-4.334,0-7.672
		c67.45,19.678,119.615,58.482,150.622,120.584c51.494,103.127,33.602,197.876-41.119,284.13
		c9.768,11.666,20.089,23.875,30.271,36.199c6.867,8.313,5.912,18.336-2.227,25.545c-1.388,1.229-2.809,2.424-4.256,3.583
		c-8.059,6.451-15.308,6.763-23.316,0.091c-12.171-10.138-24.141-20.533-35.865-31.184c-3.318-3.014-5.422-2.723-8.997-0.634
		c-81.701,47.79-164.289,49.078-247.656,4.382C127.931,456.005,126.564,455.03,124.574,453.783z"/>
	<path fill-rule="evenodd" clip-rule="evenodd" fill="#007EA2" d="M21.955,108.78C-4.957,85.229-6.13,42.978,18.82,17.961
		c25.584-25.654,67.539-24.922,91.547,2.172C74.091,42.748,44.607,72.18,21.955,108.78z"/>
	<path fill-rule="evenodd" clip-rule="evenodd" fill="#007EA2" d="M477.468,108.805c-22.632-36.492-51.937-65.934-88.62-88.752
		c16.057-16.857,35.269-23.785,57.425-19.908c25.432,4.449,42.324,19.867,49.885,44.6C503.111,67.503,495.51,93.002,477.468,108.805
		z"/>
</g>
</svg>
