<?xml version="1.0" encoding="utf-8"?>
<!-- Generator: Adobe Illustrator 16.0.0, SVG Export Plug-In . SVG Version: 6.00 Build 0)  -->
<!DOCTYPE svg PUBLIC "-//W3C//DTD SVG 1.1//EN" "http://www.w3.org/Graphics/SVG/1.1/DTD/svg11.dtd">
<svg version="1.1" id="Layer_1" xmlns="http://www.w3.org/2000/svg" xmlns:xlink="http://www.w3.org/1999/xlink" x="0px" y="0px"
	 width="499.722px" height="608.836px" viewBox="0 0 499.722 608.836" enable-background="new 0 0 499.722 608.836"
	 xml:space="preserve">
<g>
	<path fill-rule="evenodd" clip-rule="evenodd" fill="#007EA2" d="M232.096,430.103c-3.313,0-6.482,0-9.652,0
		c-58.191,0-116.377,0.018-174.57-0.006c-31.26-0.014-48.129-16.946-48.137-48.404c-0.031-100.968-0.031-201.937,0-302.901
		c0.008-31.729,16.918-48.434,48.912-48.441c59.52-0.014,119.033-0.003,178.553-0.003c3.166,0,6.332,0,10.777,0
		c0-5.966-0.111-11.427,0.025-16.88c0.225-9.245,4.301-13.986,11.717-13.883c7.324,0.1,11.189,4.855,11.381,14.213
		c0.105,5.242,0.018,10.485,0.018,16.55c4.07,0,7.189,0,10.309,0c59.783,0,119.564-0.014,179.348,0.005
		c31.738,0.008,48.641,16.93,48.648,48.76c0.021,100.702,0.02,201.402,0,302.105c-0.008,32.24-16.816,48.88-49.307,48.884
		c-57.926,0.01-115.848,0.002-173.771,0.002c-3.15,0-6.307,0-10.543,0c0,3.449,0,6.275,0,9.1c0,31.352-0.119,62.707,0.119,94.058
		c0.039,5.064,1.125,10.316,2.836,15.085c0.711,1.983,4.15,3.527,6.645,4.254c27.762,8.064,55.592,15.88,83.375,23.876
		c9.572,2.756,14.779,10.505,13.008,18.818c-2.135,10.018-10.834,14.996-21.139,12.395c-25.459-6.429-50.955-12.731-76.443-19.046
		c-1.518-0.375-3.117-0.418-5.572-0.732c0,6.807,0,13.295,0,20.322c-12.896,0-24.936,0-37.842,0c0-6.689,0-13.211,0-20.866
		c-14.854,3.78-28.65,7.238-42.418,10.809c-12.066,3.131-24.102,6.388-36.15,9.582c-9.17,2.433-17.805-2.012-20.313-10.448
		c-2.713-9.134,1.719-17.576,11.33-20.51c26.127-7.978,52.193-16.208,78.57-23.272c8.412-2.255,11.217-7.506,11.279-14.196
		c0.357-35.598,0.09-71.201,0.012-106.802C233.1,432.054,232.725,431.583,232.096,430.103z M249.219,392.434
		c66.936,0,133.871,0.004,200.807-0.005c11.512-0.001,11.662-0.158,11.664-11.468c0.004-100.402,0.004-200.807,0-301.21
		c0-11.702-0.016-11.718-12.197-11.718c-133.338-0.002-266.68-0.002-400.018,0c-12.059,0.002-12.07,0.018-12.07,11.857
		c-0.006,99.872-0.002,199.744-0.002,299.617c0,12.914,0.006,12.923,12.604,12.924C116.408,392.437,182.813,392.434,249.219,392.434
		z"/>
	<path fill-rule="evenodd" clip-rule="evenodd" fill="#007EA2" d="M386.916,241.422c-17.17-2.99-34.363-5.929-51.535-8.989
		c-22.711-4.046-45.42-8.098-68.076-12.422c-2.482-0.474-5.533-2.202-6.783-4.276c-20.836-34.51-41.428-69.166-62.049-103.803
		c-0.242-0.404-0.197-0.974-0.277-1.469c36.006-22.933,95.088-19.156,134.156,8.173
		C376.639,149.611,393.777,201.941,386.916,241.422z"/>
	<path fill-rule="evenodd" clip-rule="evenodd" fill="#007EA2" d="M190.287,341.849c-69.426-44.022-64.824-141.806-2.906-181.239
		c4.869,8.17,9.734,16.332,14.602,24.489c11.824,19.802,23.762,39.538,35.34,59.483c1.473,2.531,2.494,6.906,1.313,9.155
		c-15.313,29.075-31.063,57.921-46.729,86.811C191.684,340.961,191.123,341.194,190.287,341.849z"/>
	<path fill-rule="evenodd" clip-rule="evenodd" fill="#007EA2" d="M202.32,348.177c15.865-29.307,31.447-58.245,47.303-87.034
		c0.926-1.682,4.219-3.346,6.076-3.033c32.381,5.467,64.713,11.246,97.039,16.955C343.619,333.564,269.244,380.595,202.32,348.177z"
		/>
</g>
</svg>
