<?xml version="1.0" encoding="utf-8"?>
<!-- Generator: Adobe Illustrator 16.0.0, SVG Export Plug-In . SVG Version: 6.00 Build 0)  -->
<!DOCTYPE svg PUBLIC "-//W3C//DTD SVG 1.1//EN" "http://www.w3.org/Graphics/SVG/1.1/DTD/svg11.dtd">
<svg version="1.1" id="Layer_1" xmlns="http://www.w3.org/2000/svg" xmlns:xlink="http://www.w3.org/1999/xlink" x="0px" y="0px"
	 width="497.803px" height="490.025px" viewBox="0 0 497.803 490.025" enable-background="new 0 0 497.803 490.025"
	 xml:space="preserve">
<g>
	<g>
		<path fill="none" stroke="#007EA2" stroke-width="5.6693" stroke-miterlimit="10" d="M39.807,160.289h97.931
			c21.762,7.979,32.643,23.168,32.643,45.564v42.844c0,14.601-3.627,25.254-10.881,31.964
			c-7.527,10.429-20.674,15.642-39.444,15.642H92.172c-2.72,0-4.08,1.36-4.08,4.08v60.526c-0.907,2.268-2.495,3.4-4.761,3.4H42.527
			c-3.176,0-4.761-1.813-4.761-5.44V162.328L39.807,160.289z M88.092,203.813v50.325l2.72,2.721h19.723
			c5.168,0.727,8.794-1.769,10.881-7.48v-27.203l0.68-12.921c-0.727-6.257-4.352-9.43-10.881-9.521H92.172
			C89.452,199.732,88.092,201.093,88.092,203.813z"/>
		<path fill="none" stroke="#007EA2" stroke-width="5.6693" stroke-miterlimit="10" d="M190.132,213.508h38.706l1.508,1.508v54.791
			l1.508,2.011h34.182l1.509-1.508v-55.294l1.508-1.508h38.706l1.508,1.508l0.201,144.77c0,3.017-1.342,4.524-4.021,4.524h-33.378
			c-2.681,0-4.021-1.508-4.021-4.524v-55.797c-0.336-1.34-1.341-2.011-3.016-2.011h-33.177l-1.508,1.509l-0.101,55.797
			c0,3.352-1.173,5.026-3.519,5.026h-34.584c-2.682,0-4.021-1.508-4.021-4.524V218.031
			C188.121,215.485,188.79,213.978,190.132,213.508z"/>
		<path fill="none" stroke="#007EA2" stroke-width="5.6693" stroke-miterlimit="10" d="M423.778,160.289
			c14.054,2.268,24.163,6.711,30.331,13.328c4.353,6.801,6.481,15.054,6.393,24.755l0.68,121.733
			c-0.636,9.884-4.943,19.632-12.921,29.242c-9.885,9.521-20.313,14.509-31.283,14.962h-85.689c-1.36,0-2.72-1.813-4.08-5.44v-191.1
			c0-4.986,1.585-7.48,4.761-7.48H423.778z M375.493,197.692v126.493c0,1.36,0.905,2.04,2.72,2.04h21.082
			c8.705,0,13.238-3.173,13.602-9.521V207.213c-0.091-6.89-5.759-10.064-17.002-9.521H375.493z"/>
	</g>
	<g>
		<path fill="#007EA2" d="M111.211,201H92.17c-2.721,0-4.17,0.128-4.17,2.849v22.99c4,1.853,8.17,3.706,12.336,5.563
			c6.945,3.097,12.664,6.215,20.664,9.334V222.21l0.889-12.308C121.159,203.65,117.742,201,111.211,201z"/>
		<path fill="#007EA2" d="M331.285,365c-1.358,0-3.285-2.47-5.285-6.097v-84.218c-6,2.724-11.345,5.457-17.247,8.226l0.409,77.233
			c0,3.02-1.039,4.855-3.721,4.855h-33.379c-2.681,0-3.063-2.163-3.063-5.18v-55.797c0-1.34-2.3-2.023-3.974-2.023H231.85
			l-1.508,1.516l-0.102,56.13c0,3.348-1.173,5.354-3.518,5.354H192.14c-2.683,0-3.14-2.163-3.14-5.18v-73.369
			c-3-0.875-3.999-1.739-5.779-2.699c-6.009-3.24-12.322-6.327-18.463-9.343c-1.426,2.374-3.198,5.313-5.149,7.116
			C152.079,291.953,138.823,298,120.051,298H99.803c0.01,17,0.108,34.74,0.471,52.488c0.084,4.037,5.126,8.494,9.049,11.361
			c28.268,20.656,59.462,35.057,93.749,42.367c58.104,12.389,110.786-0.064,158.146-35.475c1.712-1.279,3.316-0.742,4.829-3.742
			H331.285z"/>
		<path fill="#007EA2" d="M99.846,259h10.686c3.709,0,6.609-1.701,8.729-4.492c-6.452-2.922-12.923-5.343-19.397-8.376
			C99.863,250.255,99.854,254,99.846,259z"/>
		<path fill="#007EA2" d="M408.112,274.02c-0.049,4.202,2.888,7.339,2.888,9.348v-17.743C411,267.382,408.16,270.02,408.112,274.02z
			"/>
		<path fill="#007EA2" d="M411,316.738v-11.744c0,6.318-3.357,12.925-4.796,19.504C409.16,322.945,411,320.385,411,316.738z"/>
		<path fill="#007EA2" d="M377.532,326.216c-0.663-14.25,0.675-28.69,0.79-43.021c0.082-10.235-0.166-20.464-0.166-31.47
			c-1,0.451-3.156,0.888-3.156,1.336v71.158C375,325.455,376.031,326.102,377.532,326.216z"/>
		<path fill="#007EA2" d="M481.009,161.175c-2.719-2.574-7.162-3.354-10.868-4.838c-53.547-21.397-107.494-41.867-160.529-64.468
			c-40.471-17.249-79.249-17.355-119.732,0.044c-56.224,24.162-113.47,45.955-169.937,69.571
			c-6.415,2.68-14.49,10.331-14.817,16.071c-0.316,5.548,7.325,13.983,13.45,17.034c6.399,3.187,11.425,6.29,19.425,9.35v-41.576
			L39.803,163h97.931C159.495,171,171,183.493,171,205.889v42.843c0,5.195-0.351,9.867-1.27,14.065
			c6.364,2.738,11.27,5.444,19.27,8.084v-52.814c0-2.547-0.212-4.066,1.128-4.066h38.706l1.166,1.052v54.79l1.85,5.158h34.181
			l0.97-4.656v-55.292l2.049-1.052h38.706l1.507,1.277l-0.528,53.82c5.953-2.775,11.267-5.714,17.267-8.354v-92.939
			c0-4.985,2.791-4.805,5.966-4.805h91.81c14.053,3,24.163,5.371,30.332,11.988c4.353,6.805,6.48,14.385,6.391,24.088l0.026,4.074
			c7.146-3.139,14.174-6.703,20.97-10.462c5.526-3.06,12.688-10.337,12.32-15.13C493.368,171.777,486.133,166.019,481.009,161.175z"
			/>
		<path fill="#007EA2" d="M395.891,199H375v41.035c14-5.451,27-11.027,36-16.619v-16.167C411,200.358,407.135,199,395.891,199z"/>
	</g>
</g>
</svg>
