<?xml version="1.0" encoding="utf-8"?>
<!-- Generator: Adobe Illustrator 16.0.0, SVG Export Plug-In . SVG Version: 6.00 Build 0)  -->
<!DOCTYPE svg PUBLIC "-//W3C//DTD SVG 1.1//EN" "http://www.w3.org/Graphics/SVG/1.1/DTD/svg11.dtd">
<svg version="1.1" id="Layer_1" xmlns="http://www.w3.org/2000/svg" xmlns:xlink="http://www.w3.org/1999/xlink" x="0px" y="0px"
	 width="73.651px" height="88.995px" viewBox="0 0 73.651 88.995" enable-background="new 0 0 73.651 88.995" xml:space="preserve">
<g>
	<circle opacity="0.7" fill-rule="evenodd" clip-rule="evenodd" fill="#89D4E5" cx="36.673" cy="37.4" r="30.333"/>
	<path fill-rule="evenodd" clip-rule="evenodd" fill="#007EA2" d="M73.65,36.308c0.057,8.841-3.055,16.552-8.107,23.605
		c-4.615,6.444-10.262,11.944-15.966,17.391c-4.084,3.899-8.187,7.782-12.259,11.691c-0.478,0.458-0.8,0.542-1.312,0.056
		c-6.673-6.341-13.45-12.576-20.013-19.029c-4.662-4.584-8.779-9.65-11.839-15.498C1.997,50.397,0.536,46.042,0,41.426
		c-1.191-10.259,1.076-19.635,7.674-27.721C13.467,6.607,20.955,2.28,29.98,0.596c3.209-0.598,6.45-0.733,9.654-0.463
		c9.463,0.801,17.575,4.588,24.156,11.512c4.889,5.144,7.965,11.229,9.24,18.19C73.42,31.959,73.454,34.147,73.65,36.308z
		 M6.376,37.357c0.001,16.555,13.53,30.116,30.075,30.146C53.066,67.534,66.676,54,66.686,37.436
		c0.008-16.73-13.441-30.237-30.111-30.24C19.871,7.192,6.375,20.674,6.376,37.357z"/>
	<path fill-rule="evenodd" clip-rule="evenodd" fill="#007EA2" d="M7.706,37.34C7.715,21.444,20.772,8.426,36.701,8.433
		c15.9,0.006,28.96,13.063,28.94,28.935C65.622,53.37,52.61,66.394,36.641,66.369C20.676,66.344,7.689,53.305,7.706,37.34z
		 M8.321,37.407C8.336,53.023,21.06,65.751,36.656,65.75c15.655-0.001,28.37-12.716,28.362-28.365
		C65.011,21.73,52.287,9.035,36.622,9.056C21.024,9.075,8.305,21.817,8.321,37.407z"/>
	<path fill-rule="evenodd" clip-rule="evenodd" fill="#007EA2" d="M26.608,51.962c-0.813-0.295-1.258-0.816-1.151-1.716
		c0.009-0.08-0.129-0.211-0.228-0.265c-0.367-0.202-0.735-0.412-1.125-0.565c-0.339-0.134-0.387-0.354-0.372-0.677
		c0.094-2.097,0.008-4.183-0.437-6.243c-0.386-1.788-1.111-3.45-1.873-5.098c-1.063-2.293-1.722-4.683-1.817-7.217
		c-0.111-2.978,0.469-5.821,1.812-8.471c2.416-4.775,6.333-7.776,11.374-9.402c2.49-0.804,5.044-1.099,7.645-0.93
		c2.158,0.14,4.23,0.657,6.229,1.694c-0.495,0.886-0.979,1.751-1.474,2.635c-0.525-0.194-1.03-0.402-1.553-0.56
		c-0.132-0.04-0.38,0.031-0.461,0.139c-0.232,0.3-0.404,0.645-0.606,0.979c0.615,0.217,1.143,0.403,1.703,0.601
		c-0.163,0.282-0.293,0.504-0.428,0.736c0.57,0.285,1.136,0.541,1.675,0.842c2.295,1.281,3.528,3.297,3.925,5.845
		c0.135,0.857,0.153,1.734,0.181,2.604c0.01,0.311,0.109,0.504,0.344,0.686c0.757,0.587,1.501,1.188,2.247,1.789
		c0.113,0.091,0.233,0.184,0.314,0.3c0.488,0.696,1.03,1.28,1.981,1.296c0.22,0.003,0.473,0.219,0.647,0.398
		c0.443,0.456,0.378,1.087-0.172,1.401c-0.384,0.22-0.819,0.365-1.251,0.484c-1.754,0.483-3.543,0.761-5.358,0.89
		c-0.125,0.009-0.251,0.033-0.478,0.064c0.284,0.716,0.506,1.404,0.827,2.042c0.411,0.814,0.904,1.585,1.363,2.376
		c0.014,0.024,0.038,0.044,0.052,0.068c0.69,1.098,0.398,1.795-0.87,2.089c-1.019,0.235-1.141,0.436-0.809,1.313
		c0.335,0.883,0.335,0.883-0.38,1.479c0.085,0.146,0.18,0.288,0.255,0.44c0.12,0.244,0.103,0.45-0.134,0.646
		c-0.574,0.476-0.838,1.066-0.587,1.816c0.009,0.027,0.003,0.059,0.011,0.087c0.414,1.618-0.411,2.239-1.863,2.233
		c-1.016-0.005-2.031-0.061-3.046-0.123c-0.593-0.038-1.108,0.139-1.384,0.641c-0.5,0.91-0.916,1.864-1.388,2.842
		c0.202,0.054,0.323,0.095,0.448,0.119c1.064,0.225,2.062,0.619,2.952,1.24c0.379,0.264,0.759,0.34,1.208,0.344
		c0.546,0.003,1.104,0.052,1.636,0.172c1.229,0.275,2.013,1.1,2.495,2.223c0.523,1.22,0.664,2.523,0.736,3.832
		c0.029,0.515-0.279,0.87-0.73,1.09c-0.698,0.338-1.419,0.283-2.119,0.035c-0.289-0.104-0.517-0.074-0.779,0.037
		c-1.825,0.767-3.701,1.342-5.668,1.638c-0.761,0.114-1.488,0.442-2.25,0.575c-2.091,0.363-4.063,0.016-5.795-1.252
		c-0.527-0.385-0.936-0.939-1.378-1.434c-1.513-1.688-3.08-3.317-4.984-4.57c-0.661-0.437-1.382-0.788-2.095-1.143
		c-0.276-0.138-0.422-0.276-0.416-0.605c0.019-0.946-0.211-0.852,0.818-1.156c0.51-0.153,1.043-0.253,1.573-0.299
		c0.387-0.033,0.616-0.166,0.743-0.527C26.406,52.297,26.516,52.139,26.608,51.962z M42.21,34.198
		c-0.335,0.575-0.702,1.192-1.057,1.816c-0.106,0.186-0.217,0.386-0.246,0.59c-0.067,0.458,0.244,0.715,0.695,0.602
		c0.178-0.044,0.347-0.112,0.556-0.183c-0.068,0.445-0.253,0.788-0.6,1.035c-0.556,0.396-1.098,0.085-1.651-0.08
		c0.126,0.678,0.272,0.774,1.272,0.871c-0.03,0.07-0.045,0.145-0.088,0.193c-0.239,0.269-0.483,0.529-0.728,0.796
		c1.346,1.468,0.91,3.157-0.182,4.207c-0.136,0.13-0.259,0.274-0.37,0.427c-0.197,0.27-0.172,0.854,0.063,1.008
		c0.313,0.207,0.576,0.028,0.822-0.169c0.083-0.067,0.161-0.141,0.258-0.226c0.174,0.914,0.006,1.265-0.98,2.082
		c0.023,0.085,0.038,0.187,0.079,0.275c0.369,0.807-0.076,1.625-0.663,2.065c-0.244,0.183-0.518,0.345-0.707,0.574
		c-0.147,0.182-0.264,0.456-0.258,0.685c0.013,0.528,0.215,0.65,0.971,0.713c-0.232,0.479-0.459,0.955-0.988,1.158
		c-0.767,0.291-1.26-0.276-1.809-0.654c-0.032,0.023-0.063,0.045-0.096,0.066c0.113,0.298,0.228,0.596,0.346,0.907
		c-0.884,0.116-1.59-0.226-2.182-0.872c-0.028,0.026-0.057,0.053-0.084,0.078c0.121,0.296,0.242,0.591,0.378,0.922
		c-1.165,0.101-2.035-0.379-2.81-1.353c0,0.486,0,0.844,0,1.317c-0.427-0.188-0.863-0.31-1.215-0.553
		c-0.355-0.246-0.626-0.614-0.936-0.93c-0.519,0.376-0.494,0.858,0.077,1.144c2.036,1.016,3.894,2.288,5.58,3.813
		c0.12,0.109,0.348,0.205,0.489,0.169c2.152-0.562,4.342-0.737,6.558-0.669c0.077,0.002,0.153-0.019,0.3-0.037
		c-1.02-1.062-2.142-1.781-3.623-2.043c0.096,0.306,0.163,0.528,0.23,0.75c-0.175-0.018-0.296-0.079-0.368-0.177
		c-0.255-0.345-0.27-0.732-0.13-1.12c0.146-0.41,0.315-0.81,0.484-1.21c0.415-0.974,0.798-1.963,1.267-2.909
		c0.357-0.721,0.952-1.121,1.831-1.052c1.04,0.081,2.086,0.122,3.13,0.115c1.311-0.009,1.672-0.465,1.342-1.714
		c-0.22-0.834-0.048-1.509,0.538-2.115c0.263-0.271,0.228-0.506-0.131-0.626c-0.378-0.127-0.786-0.166-1.181-0.243
		c-0.206-0.041-0.411-0.081-0.617-0.122c0.007-0.056,0.014-0.11,0.021-0.165c0.536,0,1.07,0.013,1.604-0.009
		c0.169-0.007,0.365-0.067,0.499-0.17c0.298-0.233,0.312-0.507,0.142-0.872c-0.475-1.021-0.2-1.577,0.847-1.848
		c0.238-0.062,0.477-0.127,0.709-0.209c0.433-0.151,0.577-0.444,0.426-0.884c-0.062-0.177-0.147-0.353-0.256-0.502
		c-0.976-1.341-1.652-2.827-2.179-4.39c-0.04-0.119-0.231-0.263-0.354-0.264C45.556,34.194,43.874,34.198,42.21,34.198z
		 M32.577,32.18c-0.51-0.641-0.793-1.301-0.487-2.053c0.328-0.808,1.011-0.834,1.754-0.603c-0.228-1.129-0.228-1.13-1.063-1.757
		c-0.057-0.043-0.129-0.07-0.178-0.121c-0.188-0.191-0.553-0.238-0.472-0.646c0.082-0.417,0.061-0.818,0.623-1
		c0.786-0.256,1.015-0.777,0.849-1.69c-0.495,0.396-0.981,0.73-1.402,1.133c-0.707,0.675-1.512,0.773-2.379,0.461
		c-0.955-0.344-1.543-1.049-1.864-2.015c0.079-0.015,0.11-0.03,0.136-0.023c1.191,0.333,2.137,0.055,2.982-0.917
		c0.83-0.954,1.785-0.991,2.715-0.323c0.137,0.097,0.253,0.218,0.344,0.298c0.505-0.373,0.979-0.726,1.458-1.079
		c-0.813-0.783-1.005-1.27-0.645-1.936c0.207-0.383,0.118-0.637-0.153-1.04c-1.253,0.374-2.551,0.687-3.791,1.15
		c-1.77,0.661-3.27,1.739-4.383,3.297c-1.705,2.393-2.157,5.058-1.512,7.876c0.427,1.863,1.037,3.682,1.585,5.516
		c0.271,0.912,0.587,1.813,0.918,2.827c0.68-0.372,1.315-0.703,1.931-1.07c0.137-0.083,0.195-0.296,0.29-0.446
		c-0.175-0.105-0.342-0.281-0.521-0.298c-0.328-0.028-0.663,0.059-0.996,0.062c-0.661,0.002-1.133-0.371-1.183-1.031
		c-0.039-0.497-0.007-1.025,0.122-1.503c0.206-0.759,0.39-1.489-0.072-2.225c0.867-0.088,1.173,0.143,1.487,1.083
		c0.811,0.141,1.031,0.391,1.029,1.184c-0.098-0.039-0.188-0.076-0.279-0.111c-0.302-0.116-0.611-0.109-0.759,0.197
		c-0.082,0.173-0.077,0.483,0.03,0.631c0.198,0.271,0.463,0.08,0.697-0.043c0.487-0.256,0.977-0.527,1.613-0.152
		c-0.058-0.315-0.101-0.547-0.15-0.818c0.915,0.145,1.097,0.854,1.285,1.632c0.956-0.803,1.877-1.576,2.686-2.256
		c-0.236-0.801-0.428-1.464-0.627-2.126c-0.074-0.248-0.131-0.51-0.254-0.734c-0.261-0.488-0.72-0.506-1.016-0.045
		C32.794,31.668,32.711,31.902,32.577,32.18z M25.697,49.73c0.07-0.338,0.178-0.664,0.203-0.995
		c0.189-2.581-0.094-5.113-0.921-7.563c-0.662-1.963-1.474-3.876-2.135-5.841c-0.812-2.409-1.354-4.875-1.031-7.445
		c0.575-4.582,2.646-8.293,6.443-10.99c2.078-1.479,4.403-2.356,6.899-2.795c2.548-0.446,5.082-0.454,7.578,0.323
		c0.756,0.235,1.506,0.483,2.285,0.734c0.343-0.627,0.687-1.257,1.046-1.915c-2.224-0.987-4.503-1.453-6.888-1.448
		c-3.137,0.007-6.142,0.62-8.988,1.948c-3.615,1.684-6.393,4.26-8.208,7.826c-1.362,2.675-2.065,5.518-1.932,8.525
		c0.11,2.52,0.708,4.928,1.849,7.196c1.608,3.195,2.437,6.574,2.298,10.168c-0.02,0.491-0.175,1.09,0.044,1.448
		c0.229,0.375,0.836,0.52,1.277,0.764C25.542,49.688,25.572,49.69,25.697,49.73z M38.688,51.877
		c-1.038-0.641-0.839-1.823-0.052-2.33c0.098-0.063,0.176-0.152,0.267-0.223c0.887-0.682,1-0.975,0.67-2.045
		c-0.106-0.348-0.025-0.498,0.297-0.618c0.295-0.109,0.54-0.303,0.604-0.706c-0.51,0.137-0.891-0.012-1.098-0.442
		c-0.23-0.483-0.186-0.96,0.188-1.378c0.124-0.139,0.246-0.282,0.373-0.418c1.057-1.131,1.104-2.542,0.11-3.543
		c-0.094-0.094-0.234-0.195-0.356-0.199c-0.638-0.023-1.084-0.361-1.461-0.828c-0.768-0.955-0.771-2.062-0.615-3.194
		c0.077-0.561-0.051-0.803-0.577-1.032c-0.708-0.307-1.64,0.15-2.028,0.974c-0.295,0.623-0.231,1.265,0.09,1.802
		c0.542,0.899,1.187,1.738,1.81,2.588c0.188,0.256,0.462,0.15,0.655-0.014c0.161-0.136,0.262-0.341,0.392-0.513
		c0.024-0.032,0.064-0.052,0.115-0.09c0.099,0.083,0.194,0.165,0.287,0.245c-0.183,0.449-0.45,0.88-0.901,0.893
		c-0.625,0.016-0.681,0.404-0.749,0.827c-0.055,0.343-0.103,0.694-0.089,1.039c0.034,0.812,0.129,1.622,0.156,2.434
		c0.028,0.88,0.007,1.761,0.007,2.649c-0.771-0.104-1.513-0.255-2.262-0.297c-2.042-0.111-4.086-0.18-6.13-0.258
		c-0.096-0.003-0.264,0.063-0.281,0.127c-0.23,0.85-0.916,1.313-1.522,1.846c-0.384,0.336-0.653,0.739-0.712,1.257
		c-0.068,0.597,0.456,1.188,0.978,1.031c0.389-0.116,0.674,0.019,0.987,0.155c0.443,0.193,0.883,0.394,1.335,0.595
		c0.156-0.763,0.459-1.058,1.149-1.166c0.728,1.161,0.801,1.232,1.235,1.267c0.193-0.418,0.374-0.816,0.587-1.276
		c0.348,0.399,0.595,0.765,0.92,1.032c0.316,0.261,0.716,0.422,1.041,0.604c0.129-0.536,0.23-0.961,0.362-1.511
		c0.552,0.623,0.896,1.255,1.68,1.341c-0.036-0.5,0.05-0.946,0.409-1.315C37.729,52.476,38.137,52.604,38.688,51.877z
		 M41.467,21.916c-0.15-0.169-0.217-0.239-0.279-0.313c-0.477-0.565-0.945-1.136-1.427-1.696c-0.341-0.396-0.724-0.756-1.039-1.169
		c-0.499-0.653-0.497-1.252-0.041-1.932c0.155-0.231,0.334-0.447,0.501-0.671c-0.021-0.04-0.042-0.08-0.063-0.12
		c-0.323,0.099-0.646,0.197-0.969,0.294c-0.15,0.044-0.308,0.124-0.453,0.11c-0.406-0.038-0.77,0.012-1.108,0.265
		c-0.235,0.176-0.496,0.324-0.768,0.438c-0.521,0.222-0.76,0.579-0.629,1.131c0.085,0.363,0.261,0.704,0.384,1.059
		c0.037,0.108,0.073,0.256,0.031,0.35c-0.489,1.085-0.466,1.196,0.465,1.919c0.021,0.016,0.025,0.049,0.025,0.049
		c-0.051,0.506-0.172,0.924-0.769,0.982c-0.125,0.012-0.261,0.131-0.354,0.234c-0.252,0.277-0.48,0.574-0.73,0.875
		c-0.157-0.174-0.313-0.36-0.483-0.528c-0.71-0.701-1.504-0.744-2.204-0.112c-0.193,0.174-0.365,0.374-0.527,0.578
		c-0.42,0.518-0.966,0.771-1.624,0.803c-0.183,0.008-0.366,0.017-0.566,0.027c0.014,0.07,0.012,0.115,0.03,0.147
		c0.598,1.021,2.102,1.249,2.985,0.463c0.368-0.327,0.731-0.672,1.146-0.93c0.226-0.142,0.584-0.217,0.828-0.144
		c0.359,0.109,0.411,0.499,0.373,0.846c-0.022,0.212-0.044,0.472-0.175,0.613c-0.324,0.354-0.691,0.675-1.077,0.963
		c-0.255,0.191-0.432,0.501-0.25,0.663c0.283,0.251,0.605,0.456,0.949,0.71c0.048-0.236,0.074-0.394,0.112-0.549
		c0.303-1.199,0.802-2.271,1.922-2.934c1.018-0.604,2.049-0.576,3.059-0.012c0.921,0.515,1.464,1.267,1.303,2.387
		c-0.006,0.04,0.014,0.084,0.031,0.166c0.925-0.309,1.976-0.134,2.808-0.799c0.467,0.273,0.958,0.552,1.438,0.846
		c0.244,0.149,0.516,0.291,0.693,0.503c0.496,0.587,1.101,0.979,1.828,1.202c0.102,0.03,0.215,0.091,0.277,0.172
		c0.313,0.404,0.309,0.409,0.883,0.13c-1.679-0.762-2.639-2.237-3.848-3.472c0.353-0.525,0.696-1.041,1.069-1.6
		c0.533,0.464,1.489,0.491,1.283,1.567c0.29-0.027,0.513-0.048,0.812-0.077c-0.164-0.351-0.245-0.677-0.439-0.909
		c-0.372-0.44-0.802-0.833-1.219-1.234c-0.399-0.386-0.802-0.354-1.15,0.08c-0.207,0.259-0.396,0.534-0.583,0.789
		c-0.326-0.011-0.47-0.125-0.49-0.469c-0.015-0.257-0.157-0.527-0.305-0.75c-0.215-0.325-0.492-0.608-0.729-0.918
		c-0.424-0.55-0.586-1.152-0.35-1.877c0.358,0.247,0.709,0.453,1.011,0.716c0.193,0.168,0.314,0.42,0.471,0.635
		c0.097,0.132,0.186,0.354,0.301,0.369c0.126,0.016,0.325-0.129,0.403-0.259c0.092-0.155,0.163-0.393,0.111-0.551
		c-0.22-0.672-0.423-1.362-0.758-1.979c-0.342-0.629-0.765-1.182-0.045-1.81c-1.433-0.694-3.155-0.343-4.444,1.302
		c0.185,0.243,0.372,0.493,0.521,0.688c0.528-0.396,0.985-0.83,1.523-1.109c0.376-0.196,0.789-0.277,0.976-0.721
		c0.028-0.068,0.142-0.102,0.234-0.163c-0.039,0.369-0.074,0.697-0.111,1.046c-0.983,0.058-1.664,0.596-2.215,1.364
		c0.309,0.358,0.621,0.686,0.891,1.044C41.181,20.979,41.508,21.304,41.467,21.916z M53.313,31.747
		c0.023-0.058,0.047-0.116,0.071-0.175c-0.435-0.569-0.8-1.213-1.318-1.689c-0.827-0.762-1.762-1.406-2.634-2.121
		c-0.142-0.115-0.254-0.34-0.27-0.521c-0.068-0.853-0.039-1.717-0.151-2.563c-0.296-2.228-1.2-4.135-3.089-5.473
		c-0.67-0.475-1.388-0.859-2.072-1.091c0.344,0.967,0.717,1.949,1.04,2.947c0.143,0.442-0.359,1.065-0.921,1.236
		c-0.328,0.101-0.723-0.226-0.922-0.702c-0.086-0.203-0.265-0.37-0.4-0.553c-0.057,0.041-0.111,0.084-0.166,0.127
		c0.491,0.674,0.983,1.348,1.487,2.037c0.035-0.048,0.072-0.106,0.12-0.158c0.718-0.775,1.274-0.788,2.023-0.045
		c0.298,0.296,0.57,0.615,0.886,0.889c0.562,0.483,0.742,1.142,0.95,1.834c-0.642,0.092-1.237,0.178-1.852,0.268
		c-0.107-0.566,0.064-1.246-0.732-1.428c-0.189,0.277-0.387,0.563-0.578,0.842c1.194,1.557,2.664,2.777,4.285,3.867
		c-0.654,0.179-1.275,0.286-1.898,0.377c-0.06,0.009-0.178-0.072-0.193-0.132c-0.089-0.333-0.373-0.402-0.632-0.532
		c-0.334-0.168-0.665-0.357-0.964-0.581c-0.793-0.597-1.567-1.217-2.205-1.714c-0.593,0.16-0.987,0.287-1.393,0.37
		c-0.496,0.103-1.002,0.147-1.498,0.257c-0.177,0.039-0.397,0.155-0.48,0.301c-0.254,0.455-0.511,0.924-0.655,1.419
		c-0.19,0.647-0.284,1.322-0.397,1.988c-0.044,0.26,0.084,0.409,0.368,0.481c3.474,0.884,6.985,1.316,10.563,0.865
		C50.9,32.221,52.104,31.96,53.313,31.747z M27.072,51.998c-0.206,0.389-0.408,0.741-0.58,1.106c-0.109,0.228-0.266,0.28-0.508,0.31
		c-0.658,0.079-1.313,0.203-1.966,0.328c-0.189,0.036-0.401,0.076-0.381,0.373c0.019,0.266,0.001,0.48,0.33,0.618
		c1.474,0.616,2.759,1.541,3.92,2.618c1.179,1.092,2.3,2.25,3.417,3.406c1.966,2.037,4.317,2.687,7.065,2.094
		c0.397-0.086,0.453-0.232,0.432-0.569c-0.1-1.51-0.94-2.659-1.836-3.771c-0.988-1.223-2.168-2.25-3.417-3.197
		C31.603,53.84,29.495,52.679,27.072,51.998z M38.943,17.878c0.885-0.845,1.862-1.485,3.121-1.552
		c0.062-0.003,0.143-0.086,0.176-0.151c0.203-0.408,0.395-0.823,0.601-1.256c-0.024-0.013-0.072-0.046-0.124-0.058
		c-4.503-1.159-8.831-0.689-12.904,1.553c-2.779,1.531-4.886,3.762-6.203,6.676c-1.112,2.465-1.653,5.032-1.387,7.755
		c0.234,2.39,0.987,4.624,1.96,6.789c1.53,3.405,2.412,6.931,2.165,10.692c-0.008,0.133,0,0.267,0,0.486
		c0.564-0.507,1.207-0.813,1.317-1.598c-0.165-0.016-0.29-0.025-0.408-0.035c-0.058-0.732-0.088-1.442-0.175-2.146
		c-0.308-2.492-1.071-4.871-1.833-7.25c-0.785-2.446-1.583-4.883-1.997-7.435c-0.775-4.773,2.026-9.405,6.291-11.331
		c1.533-0.693,3.126-1.139,4.781-1.397c0.176-0.028,0.393-0.13,0.493-0.267c0.31-0.422,2.007-1.487,2.521-1.437
		c0.429,0.043,0.771-0.084,1.144-0.234c0.633-0.253,1.259-0.059,1.555,0.43C39.016,16.94,38.815,17.256,38.943,17.878z
		 M28.799,45.488c2.051,0.134,4.141,0.269,6.229,0.404c0-0.617,0.021-1.312-0.004-2.005c-0.054-1.409-0.15-2.821,0.354-4.178
		c0.121-0.329,0.091-0.554-0.101-0.87c-0.338-0.563-0.559-1.197-0.818-1.805c-0.054-0.123-0.064-0.262-0.105-0.436
		c-1.873,1.705-3.828,3.183-6.164,4.092c-0.098,0.038-0.194,0.273-0.174,0.397C28.267,42.574,28.541,44.054,28.799,45.488z
		 M34.66,18.017c-0.083,0-0.158-0.015-0.226,0.003c-1.275,0.328-2.58,0.574-3.815,1.014c-2.512,0.895-4.524,2.447-5.827,4.827
		c-1.264,2.309-1.481,4.762-1.02,7.312c0.427,2.366,1.253,4.617,1.991,6.892c0.713,2.198,1.375,4.405,1.676,6.704
		c0.086,0.659,0.132,1.324,0.2,2.026c2.938-0.095,5.848,0.01,8.841,0.511c-0.05-0.874-0.079-1.668-0.144-2.458
		c-0.112-1.358-0.322-2.72,0.217-4.042c0.029-0.072,0.042-0.186,0.005-0.24c-0.211-0.305-0.439-0.595-0.745-1.002
		c-0.126,0.498-0.286,0.866-0.301,1.242c-0.04,1.07-0.02,2.145-0.021,3.218c-0.003,0.82,0,1.643,0,2.528
		c-2.414-0.548-4.794-0.625-7.22-0.486c0.044-1.925-0.341-3.724-0.813-5.487c3.198-1.237,5.815-3.22,8.006-5.816
		c-0.327-0.293-0.468-0.007-0.62,0.117c-1.311,1.074-2.588,2.196-3.928,3.233c-1.076,0.834-2.255,1.52-3.639,1.86
		c-0.184-0.593-0.372-1.17-0.54-1.75c-0.699-2.396-1.47-4.771-2.063-7.191c-0.645-2.628-0.19-5.134,1.281-7.431
		c1.541-2.409,3.808-3.791,6.494-4.56c0.746-0.214,1.512-0.357,2.289-0.537c-0.01-0.118-0.016-0.218-0.028-0.316
		C34.701,18.131,34.68,18.078,34.66,18.017z M39.471,53.525c0.154,0.057,0.258,0.107,0.369,0.134
		c1.73,0.417,3.032,1.439,4.071,2.849c0.787,1.069,1.393,2.234,1.891,3.461c0.087,0.214,0.216,0.473,0.401,0.576
		c0.708,0.399,1.48,0.484,2.268,0.262c0.372-0.105,0.588-0.38,0.564-0.779c-0.067-1.162-0.188-2.32-0.622-3.411
		c-0.431-1.085-1.115-1.954-2.323-2.211c-0.559-0.118-1.148-0.141-1.725-0.141c-0.379-0.001-0.688-0.077-1.002-0.297
		c-0.974-0.679-2.068-1.092-3.214-1.388c-0.225-0.057-0.365-0.021-0.438,0.202C39.631,53.023,39.555,53.27,39.471,53.525z
		 M35.659,30.007c-0.636-1.182-0.789-2.339-0.073-3.502c0.324-0.526,0.928-0.737,1.513-0.585c0.556,0.145,0.892,0.569,0.942,1.214
		c0.08,0.991-0.16,1.896-0.682,2.575c0.198,0.457,0.354,0.847,0.538,1.222c0.066,0.135,0.201,0.237,0.323,0.378
		c0.124-0.709,0.174-1.338,0.354-1.926c0.182-0.592,0.505-1.138,0.74-1.715c0.237-0.582,0.432-1.177,0.23-1.818
		c-0.365-1.166-1.974-1.834-3.222-1.336c-1.742,0.695-2.736,3.114-2.019,4.914c0.131,0.329,0.268,0.658,0.421,1.037
		c-0.368-0.179-0.666-0.329-0.969-0.467c-0.369-0.169-0.769-0.302-1.101,0.015c-0.339,0.323-0.294,0.747-0.152,1.2
		c0.068-0.057,0.11-0.09,0.151-0.126c0.645-0.591,1.282-0.493,1.705,0.272c0.089,0.162,0.142,0.348,0.19,0.529
		c0.145,0.546,0.239,1.109,0.43,1.64c0.304,0.847,1.182,1.085,1.856,0.485c0.303-0.27,0.478-0.683,0.717-1.039
		c-0.454-0.27-0.792-0.539-1.175-0.688C35.229,31.845,34.953,31.02,35.659,30.007z M38.619,59.994
		c0.249,0.822,0.494,1.625,0.756,2.488c2.139-0.23,4.244-0.816,6.28-1.735c-0.057-0.154-0.091-0.263-0.137-0.368
		c-0.186-0.423-0.27-1.002-0.594-1.221c-0.322-0.217-0.89-0.074-1.349-0.087c-0.059-0.001-0.116,0-0.175,0.001
		C41.752,59.129,40.163,59.501,38.619,59.994z M44.715,58.496c-0.355-0.574-0.664-1.114-1.02-1.621
		c-0.106-0.151-0.34-0.3-0.518-0.302c-1.304-0.016-2.612-0.046-3.912,0.032c-0.987,0.061-1.966,0.277-2.986,0.43
		c0.673,0.846,1.277,1.619,1.906,2.373c0.065,0.079,0.28,0.079,0.412,0.051c1.144-0.249,2.276-0.56,3.429-0.754
		C42.878,58.561,43.754,58.565,44.715,58.496z M37.135,32.321c0.926,0.313,1.825,0.68,2.757,0.919
		c2.009,0.511,4.062,0.583,6.129,0.554c2.817-0.04,5.573-0.451,8.28-1.22c0.305-0.088,0.658-0.185,0.646-0.592
		c-0.013-0.404-0.358-0.533-0.681-0.632c-0.153-0.048-0.323-0.042-0.538-0.064c0.084,0.223,0.139,0.368,0.193,0.516
		c-0.042,0.036-0.07,0.071-0.107,0.089c-0.063,0.033-0.133,0.056-0.2,0.082c-1.624,0.636-3.317,0.935-5.05,1.022
		c-3.352,0.172-6.627-0.348-9.857-1.183C38.094,31.655,37.563,31.522,37.135,32.321z M41.751,34.027
		c-0.575-0.098-1.015-0.168-1.453-0.248c-1.007-0.185-0.988-0.174-1.563,0.668c-0.555,0.809-0.844,1.683-0.775,2.659
		c0.057,0.796,0.225,1.556,0.887,2.103c0.517,0.426,1.119,0.428,1.492-0.015c-0.871-0.387-0.941-1.147-0.932-2.006
		c0.318,0.168,0.583,0.351,0.875,0.454c0.289,0.104,0.604,0.127,0.906,0.186c0.007-0.039,0.012-0.08,0.018-0.12
		c-0.674-0.41-0.883-0.808-0.669-1.399c0.107-0.294,0.312-0.552,0.459-0.832C41.238,35.023,41.473,34.563,41.751,34.027z
		 M31.122,36.428c-0.572-0.508-1.102-0.356-1.657-0.025c-0.477,0.285-0.876,0.199-1.165-0.173c-0.258-0.329-0.234-0.849,0.1-1.195
		c0.167-0.175,0.401-0.287,0.66-0.466c-0.29,0-0.524,0-0.729,0c-0.111-0.34-0.219-0.67-0.334-1.019
		c-0.104,0.596-0.194,1.117-0.29,1.637c-0.06,0.327-0.157,0.649-0.192,0.979c-0.096,0.925,0.311,1.311,1.227,1.152
		c0.665-0.116,1.24-0.058,1.558,0.666c0.424-0.321,0.819-0.613,1.206-0.917c0.082-0.063,0.189-0.178,0.182-0.258
		c-0.035-0.355-0.109-0.706-0.168-1.058c-0.036,0.005-0.07,0.011-0.105,0.016C31.32,35.974,31.23,36.181,31.122,36.428z
		 M36.006,29.733c0.256-0.021,0.486-0.028,0.712-0.064c0.099-0.016,0.226-0.065,0.276-0.143c0.521-0.775,0.744-1.63,0.583-2.558
		c-0.086-0.49-0.521-0.757-1.007-0.646c-0.43,0.096-0.715,0.384-0.854,0.787C35.397,28.029,35.579,28.901,36.006,29.733z
		 M36.581,30.098c-0.483,0.003-0.884,0.4-0.883,0.879c0,0.48,0.408,0.889,0.884,0.881c0.493-0.008,0.88-0.396,0.877-0.883
		C37.457,30.48,37.069,30.094,36.581,30.098z M37.125,34.449c0.243,0.17,0.497,0.349,0.756,0.531c0.333-0.512,0.652-1.001,1-1.533
		c-0.361-0.116-0.645-0.207-0.902-0.291C37.682,33.607,37.404,34.026,37.125,34.449z"/>
	<path fill-rule="evenodd" clip-rule="evenodd" fill="#007EA2" d="M43.858,35.241c1.134-0.192,2.269-0.386,3.401-0.579
		c-0.315,0.185-0.475,0.412-0.445,0.785c0.022,0.282-0.021,0.568-0.04,0.968c-0.945-0.343-1.952-0.707-2.957-1.069
		C43.831,35.311,43.845,35.276,43.858,35.241z M44.903,35.361c-0.006,0.031-0.013,0.064-0.019,0.096
		c0.461,0.181,0.921,0.361,1.414,0.555c0.024-0.335,0.045-0.604,0.067-0.911C45.858,35.191,45.381,35.276,44.903,35.361z"/>
	<path fill-rule="evenodd" clip-rule="evenodd" fill="#007EA2" d="M46.839,39.695c0.009,0.01,0.024,0.021,0.024,0.031
		c-0.02,0.965-0.001,0.976,0.886,0.585c0.11-0.05,0.239-0.057,0.333-0.077c-0.195,0.223-0.37,0.469-0.592,0.662
		c-0.307,0.269-0.829,0.112-0.894-0.288c-0.048-0.3,0.047-0.62,0.077-0.933C46.73,39.682,46.785,39.688,46.839,39.695z"/>
	<path fill-rule="evenodd" clip-rule="evenodd" fill="#007EA2" d="M37.088,35.765c-0.213,0.123-0.34,0.19-0.459,0.268
		c-0.571,0.357-0.785,0.788-0.596,1.429c0.127,0.438,0.37,0.84,0.566,1.256c0.044,0.095,0.103,0.185,0.154,0.275
		c-0.041,0.03-0.08,0.061-0.121,0.091c-0.175-0.222-0.398-0.421-0.516-0.669c-0.21-0.452-0.441-0.923-0.509-1.406
		c-0.093-0.677,0.535-1.224,1.126-1.418C36.81,35.564,36.932,35.684,37.088,35.765z"/>
	<path fill-rule="evenodd" clip-rule="evenodd" fill="#007EA2" d="M48.914,27.507c-0.685,0-1.301,0-1.917,0
		c-0.005-0.037-0.01-0.074-0.015-0.11c0.592-0.148,1.182-0.295,1.825-0.456C48.848,27.149,48.88,27.326,48.914,27.507z"/>
</g>
</svg>
