<?xml version="1.0" encoding="utf-8"?>
<!-- Generator: Adobe Illustrator 16.0.0, SVG Export Plug-In . SVG Version: 6.00 Build 0)  -->
<!DOCTYPE svg PUBLIC "-//W3C//DTD SVG 1.1//EN" "http://www.w3.org/Graphics/SVG/1.1/DTD/svg11.dtd">
<svg version="1.1" id="Layer_1" xmlns="http://www.w3.org/2000/svg" xmlns:xlink="http://www.w3.org/1999/xlink" x="0px" y="0px"
	 width="505.506px" height="505.101px" viewBox="0 0 505.506 505.101" enable-background="new 0 0 505.506 505.101"
	 xml:space="preserve">
<path fill-rule="evenodd" clip-rule="evenodd" fill="#FFFFFF" d="M251.553,505.101C112.029,504.895-1.281,391.4,0,251.081
	C1.307,108.055,117.453-1.232,257.123,0.011C393.18,1.222,505.738,115.718,505.506,254.379
	C505.273,392.809,391.326,505.304,251.553,505.101z M339.633,175.773c2.297,6.876,4.414,13.818,6.922,20.617
	c10.586,28.693,2.953,52.952-22.504,69.928c-5.602,3.736-11.676,6.942-17.877,9.587c-34.783,14.819-70.967,15.697-107.631,9.814
	c-14.711-2.361-29.275-5.653-43.92-8.523c-0.332,1.882-0.764,2.706-0.535,3.268c16.365,40.507,32.674,81.04,49.488,121.358
	c0.971,2.322,6.617,4.723,9.248,4.007c23.936-6.522,48.42-11.906,71.324-21.137c40.711-16.403,75.387-40.887,95.178-82.273
	C401.488,256.073,384.234,205.988,339.633,175.773z M253.559,284.961c-3.158-8.569-6.045-15.282-8.115-22.237
	c-5.789-19.438-13.018-38.67-16.451-58.541c-6.922-40.063,11.326-61.208,52.029-62.27c13.521-0.354,27.082,1.212,40.633,1.672
	c3.66,0.123,7.348-0.584,13.818-1.159c-4.506-3.637-6.248-5.708-8.467-6.734c-26.199-12.111-53.469-20.672-82.441-22.188
	c-45.672-2.391-76.668,14.937-92.17,52.538c-13.619,33.025-8.305,66.596,0.65,99.721c0.648,2.409,5.545,4.523,8.797,5.218
	c9.191,1.963,18.545,3.184,27.854,4.572C210.383,278.64,231.084,281.653,253.559,284.961z M297.232,248.153
	c26.717,0.354,42.92-20.073,34.436-43.414c-8.078-22.225-37.816-40.388-61.395-37.502c-20.979,2.569-32.98,20.42-27.299,40.602
	C249.252,230.139,273.068,247.833,297.232,248.153z"/>
</svg>
