<?xml version="1.0" encoding="utf-8"?>
<!-- Generator: Adobe Illustrator 16.0.0, SVG Export Plug-In . SVG Version: 6.00 Build 0)  -->
<!DOCTYPE svg PUBLIC "-//W3C//DTD SVG 1.1//EN" "http://www.w3.org/Graphics/SVG/1.1/DTD/svg11.dtd">
<svg version="1.1" id="Layer_1" xmlns="http://www.w3.org/2000/svg" xmlns:xlink="http://www.w3.org/1999/xlink" x="0px" y="0px"
	 width="578.784px" height="389.634px" viewBox="0 0 578.784 389.634" enable-background="new 0 0 578.784 389.634"
	 xml:space="preserve">
<g>
	<path fill-rule="evenodd" clip-rule="evenodd" fill="#007EA2" d="M490.101,167.702c-34.473,15.131-67.136,30.255-100.416,43.862
		c-33.572,13.726-65.26,34.99-103.455,32.708c-17.873-1.067-36.422-4.452-52.989-11.015c-40.263-15.949-79.617-34.211-119.199-51.85
		c-32.535-14.501-65.192-28.81-97.059-44.683c-7.242-3.607-16.133-13.579-15.757-20.134c0.386-6.786,9.929-15.823,17.51-18.991
		c66.738-27.909,134.388-53.665,200.838-82.222c47.843-20.559,93.672-20.433,141.5-0.049
		c62.679,26.709,126.433,50.897,189.717,76.189c4.381,1.752,9.633,2.676,12.843,5.714c6.056,5.725,14.608,12.43,15.135,19.264
		c0.435,5.666-8.027,14.17-14.559,17.784c-15.085,8.349-31.105,15.253-47.295,21.267c-11.233,4.17-15.513,10.368-13.919,22.203
		c1.103,8.189,0.688,16.685-0.054,24.954c-0.224,2.49-3.82,4.681-5.87,7.008c-1.761-2.134-4.841-4.141-5.054-6.421
		C490.999,192.483,490.762,181.601,490.101,167.702z"/>
	<path fill-rule="evenodd" clip-rule="evenodd" fill="#007EA2" d="M113.19,195.771c33.29,15.594,66.514,29.344,97.993,46.327
		c47.799,25.785,94.739,25.062,142.867,2.169c28.168-13.399,56.822-25.772,88.393-40.018c0,13.002,0.079,25.095-0.018,37.188
		c-0.162,19.889-2.142,39.951-0.177,59.619c1.9,19.018-6.726,30.911-20.184,40.976c-55.97,41.842-118.235,56.826-186.9,42.185
		c-40.522-8.643-77.39-25.902-110.793-50.31c-4.638-3.39-10.596-9.148-10.695-13.918C112.833,278.756,113.19,237.503,113.19,195.771
		z"/>
	<path fill-rule="evenodd" clip-rule="evenodd" fill="#007EA2" d="M520.334,296.083c-3.816-2.717-5.931-4.218-8.137-5.789
		c-3.962,12.211-25.213,19.7-35.145,12.669c-0.829-0.59-2.158-1.696-2.018-2.246c4.085-16.006,6.183-33.09,13.621-47.386
		c2.908-5.593,17.984-4.521,21.898,7.795C514.007,271.987,516.732,283.083,520.334,296.083z"/>
	<path fill-rule="evenodd" clip-rule="evenodd" fill="#007EA2" d="M496.208,244.267c-11.79,1.897-16.604-3.186-16.483-13.67
		c0.141-12.18,8.265-13.742,18.026-14.097c10.05-0.368,14.378,3.77,13.88,13.802C511.102,241.006,507.557,247.673,496.208,244.267z"
		/>
</g>
</svg>
