<?xml version="1.0" encoding="utf-8"?>
<!-- Generator: Adobe Illustrator 16.0.0, SVG Export Plug-In . SVG Version: 6.00 Build 0)  -->
<!DOCTYPE svg PUBLIC "-//W3C//DTD SVG 1.1//EN" "http://www.w3.org/Graphics/SVG/1.1/DTD/svg11.dtd">
<svg version="1.1" id="Layer_1" xmlns="http://www.w3.org/2000/svg" xmlns:xlink="http://www.w3.org/1999/xlink" x="0px" y="0px"
	 width="1382px" height="366px" viewBox="0 0 1382 366" enable-background="new 0 0 1382 366" xml:space="preserve">
<g>
	<g>
		<path fill="#4D585F" d="M496.169,33.801H368.878c0,37.338,30.547,67.887,67.889,67.887h59.402
			c14.004,0,25.457,11.457,25.457,25.457c0,14.004-11.453,25.461-25.457,25.461H368.878v118.803
			c0,37.342,30.547,67.891,67.889,67.891V220.492c0,0,59.402,0,60.25,0c50.066,0,92.498-42.43,92.498-93.348
			C589.515,75.807,547.507,33.801,496.169,33.801z"/>
		<path fill="#4D585F" d="M799.788,152.605h-0.002c-37.668,0-68.488,30.549-68.488,67.887h68.488c0.234,0,0.471,0.021,0.709,0.029
			c1.105,0.277,15.969,4.342,15.969,19.4c0,20.789-26.816,31.486-50.014,31.486c-46.676,0-84.865-37.76-84.865-84.861
			c0-45.822,36.488-83.16,81.887-84.859h36.918c36.486,0,67.889-30.549,67.889-67.887c0,0-104.385,0-105.654,0
			c-10.607,0.424-20.367,1.699-30.117,3.816c-38.621,8.912-71.711,32.248-92.932,64.07c-16.545,24.186-25.881,53.463-25.881,84.859
			c0,31.398,9.336,60.676,25.881,84.861c27.158,41.16,73.836,67.891,126.875,67.891c11.879,0,22.908-1.273,33.939-3.82
			c25.879-5.938,48.795-18.238,67.889-35.217v-79.77h-0.002C868.276,183.154,837.454,152.605,799.788,152.605z"/>
		<path fill="#4D585F" d="M250.108,33.801v161.227L165.249,89.387L80.388,195.031c0,0,0-0.004-0.004-0.004V33.801
			c-37.342,0-67.891,30.549-67.891,67.887v237.611c0.004,0,0.012,0,0.016,0l0,0c0.16,0,0.32-0.014,0.482-0.014
			c1.148-0.008,2.291-0.035,3.424-0.1c0.004,0,0.004,0,0.008,0c0.346-0.018,0.682-0.061,1.023-0.084
			c0.262-0.018,0.52-0.045,0.781-0.066c0.682-0.057,1.367-0.1,2.045-0.178c0.008,0,0.018-0.004,0.027-0.004
			c0.346-0.037,0.686-0.098,1.031-0.145c0.254-0.031,0.506-0.074,0.76-0.109c0.65-0.092,1.303-0.17,1.945-0.279
			c0.025-0.002,0.049-0.006,0.07-0.01c0.355-0.064,0.705-0.145,1.063-0.213c0.176-0.031,0.35-0.072,0.529-0.105
			c0.703-0.137,1.41-0.268,2.105-0.428c0.014-0.002,0.031-0.006,0.045-0.01c0.348-0.078,0.686-0.176,1.027-0.26
			c0.266-0.068,0.527-0.143,0.791-0.209c0.588-0.152,1.176-0.293,1.756-0.459c0.031-0.012,0.063-0.016,0.092-0.025
			c0.33-0.096,0.652-0.209,0.98-0.311c0.201-0.061,0.4-0.131,0.602-0.195c0.639-0.201,1.281-0.395,1.912-0.617
			c0.033-0.01,0.068-0.021,0.1-0.031c0.297-0.105,0.586-0.223,0.879-0.332c0.209-0.078,0.41-0.16,0.615-0.236
			c0.633-0.24,1.268-0.473,1.893-0.73c0.045-0.018,0.088-0.033,0.131-0.051c0.232-0.098,0.457-0.203,0.688-0.303
			c0.197-0.084,0.391-0.182,0.59-0.27c0.691-0.303,1.383-0.604,2.063-0.928c0.041-0.021,0.084-0.039,0.123-0.057
			c0.109-0.053,0.219-0.111,0.328-0.166c0.049-0.025,0.096-0.057,0.148-0.08c2.049-1.008,4.043-2.109,5.975-3.313
			c0.088-0.057,0.176-0.117,0.264-0.174c1.904-1.191,3.746-2.471,5.523-3.844c0.123-0.1,0.242-0.205,0.369-0.301
			c1.727-1.355,3.396-2.779,4.99-4.289c0.152-0.146,0.293-0.297,0.441-0.441c1.49-1.441,2.92-2.941,4.279-4.51
			c0.096-0.105,0.201-0.201,0.293-0.307l15.748-19.07v-0.018l84.801-102.689l100.135,120.93
			c12.301,15.273,31.395,25.029,52.607,25.029V101.688C317.991,64.35,287.444,33.801,250.108,33.801z M250.104,195.035h0.004v0.002
			L250.104,195.035z"/>
	</g>
	<g>
		<g>
			<linearGradient id="SVGID_2_" gradientUnits="userSpaceOnUse" x1="485.8672" y1="332.1289" x2="485.8672" y2="26.6309">
				<stop  offset="0" style="stop-color:#007EA2"/>
				<stop  offset="1" style="stop-color:#89D4E5"/>
			</linearGradient>
			<path fill="url(#SVGID_2_)" d="M596.187,119.975c0,50.916-42.434,93.346-92.5,93.346c-0.848,0-60.25,0-60.25,0v118.809
				c-37.342,0-67.889-30.549-67.889-67.891V145.434h127.291c14.004,0,25.457-11.457,25.457-25.459s-11.453-25.457-25.457-25.457
				h-59.402c-37.342,0-67.889-30.549-67.889-67.887h127.291C554.177,26.631,596.187,68.637,596.187,119.975z"/>
			<linearGradient id="SVGID_3_" gradientUnits="userSpaceOnUse" x1="439.1934" y1="332.1289" x2="439.1934" y2="145.4336">
				<stop  offset="0" style="stop-color:#007EA2"/>
				<stop  offset="1" style="stop-color:#89D4E5"/>
			</linearGradient>
			<path fill="url(#SVGID_3_)" d="M375.548,264.238c0,37.342,30.547,67.891,67.889,67.891V213.32
				c0-41.141,26.732-61.93,59.402-67.887H375.548V264.238z"/>
		</g>
		<g>
			<linearGradient id="SVGID_4_" gradientUnits="userSpaceOnUse" x1="747.6563" y1="332.1289" x2="747.6563" y2="26.6309">
				<stop  offset="0" style="stop-color:#007EA2"/>
				<stop  offset="1" style="stop-color:#89D4E5"/>
			</linearGradient>
			<path fill="url(#SVGID_4_)" d="M807.058,213.32c0,0,16.076,3.793,16.076,19.43c0,20.791-26.814,31.488-50.014,31.488
				c-46.676,0-84.865-37.762-84.865-84.863c0-45.822,36.486-83.16,81.885-84.857h36.918c36.488,0,67.891-30.549,67.891-67.887
				c0,0-104.383,0-105.656,0c-10.605,0.424-20.363,1.697-30.117,3.816c-38.619,8.912-71.711,32.246-92.93,64.07
				c-16.545,24.184-25.881,53.463-25.881,84.857c0,31.4,9.336,60.678,25.881,84.863c27.158,41.158,73.836,67.891,126.875,67.891
				c11.879,0,22.908-1.275,33.938-3.82c25.881-5.939,48.797-18.24,67.891-35.217C874.948,252.027,837.601,213.32,807.058,213.32z"/>
			<linearGradient id="SVGID_5_" gradientUnits="userSpaceOnUse" x1="806.458" y1="293.0918" x2="806.458" y2="145.4336">
				<stop  offset="0" style="stop-color:#007EA2"/>
				<stop  offset="1" style="stop-color:#89D4E5"/>
			</linearGradient>
			<path fill="url(#SVGID_5_)" d="M874.944,213.32c0-37.338-30.818-67.887-68.486-67.887h-0.004
				c-37.666,0-68.486,30.549-68.486,67.887h68.486c30.813,0,68.494,38.707,68.494,79.771V213.32H874.944z"/>
		</g>
		<g>
			<linearGradient id="SVGID_6_" gradientUnits="userSpaceOnUse" x1="171.9121" y1="332.1289" x2="171.9121" y2="26.6309">
				<stop  offset="0" style="stop-color:#007EA2"/>
				<stop  offset="1" style="stop-color:#89D4E5"/>
			</linearGradient>
			<path fill="url(#SVGID_6_)" d="M272.052,307.098l-100.133-120.93L71.356,307.945c-12.732,14.848-31.4,24.184-52.193,24.184
				V94.518c0-37.34,30.549-67.887,67.891-67.887v161.236l84.865-105.65l84.859,105.65V26.631c37.334,0,67.883,30.547,67.883,67.887
				v237.611C303.448,332.129,284.353,322.373,272.052,307.098z"/>
			
				<linearGradient id="SVGID_7_" gradientUnits="userSpaceOnUse" x1="1318.5" y1="332.1299" x2="1318.5" y2="82.2178" gradientTransform="matrix(-1 0 0 1 1456.4805 0)">
				<stop  offset="0" style="stop-color:#007EA2"/>
				<stop  offset="1" style="stop-color:#89D4E5"/>
			</linearGradient>
			<path fill="url(#SVGID_7_)" d="M87.063,187.863l84.855-105.646l84.865,105.65c0,0-51.178-20.676-84.865-1.699L87.116,288.582
				v0.295L71.37,307.945c-6.176,7.199-13.754,13.09-22.283,17.26c-0.109,0.053-0.219,0.111-0.328,0.164
				c-0.914,0.441-1.84,0.852-2.775,1.254c-0.23,0.1-0.455,0.205-0.689,0.305c-0.867,0.359-1.75,0.691-2.637,1.016
				c-0.293,0.109-0.582,0.227-0.879,0.332c-0.861,0.305-1.736,0.576-2.613,0.844c-0.328,0.104-0.648,0.215-0.982,0.313
				c-0.867,0.25-1.754,0.473-2.637,0.691c-0.342,0.084-0.682,0.184-1.027,0.26c-0.887,0.205-1.779,0.375-2.68,0.545
				c-0.355,0.066-0.705,0.148-1.063,0.211c-0.918,0.156-1.848,0.279-2.775,0.4c-0.346,0.045-0.686,0.105-1.031,0.145
				c-0.945,0.109-1.9,0.176-2.854,0.246c-0.342,0.025-0.678,0.068-1.023,0.086c-1.295,0.072-2.602,0.113-3.916,0.113V187.596V94.518
				C25.349,117.502,64.36,175.654,87.063,187.863z"/>
		</g>
	</g>
	<polygon fill="#B08F22" points="1067.353,34.199 1067.353,51.469 932.03,51.469 932.03,178.15 1067.353,178.15 1067.353,195.42 
		932.03,195.42 932.03,322.107 1067.353,322.107 1067.353,339.369 914.769,339.369 914.769,34.199 	"/>
	<path fill="#B08F22" d="M1350.14,288.205l12.869,11.391c-29.115,26.449-63.367,39.672-102.752,39.672
		c-42.342,0-78.385-14.875-108.139-44.629c-29.75-29.748-44.625-65.797-44.625-108.135c0-42.059,14.875-78.037,44.625-107.922
		c29.754-29.889,65.797-44.838,108.139-44.838c39.385,0,73.637,13.293,102.752,39.881L1350.14,85.02
		c-25.602-22.646-55.564-33.975-89.883-33.975c-37.416,0-69.383,13.225-95.896,39.666c-26.523,26.449-39.771,58.377-39.771,95.793
		c0,37.553,13.248,69.561,39.771,96.006c26.514,26.449,58.48,39.664,95.896,39.664
		C1294.575,322.174,1324.538,310.855,1350.14,288.205z"/>
	<polygon fill="#FDB927" points="1073.993,27.029 1073.993,44.295 938.677,44.295 938.677,170.977 1073.993,170.977 
		1073.993,188.246 938.677,188.246 938.677,314.934 1073.993,314.934 1073.993,332.197 921.413,332.197 921.413,27.029 	"/>
	<path fill="#FDB927" d="M1356.638,281.197l12.869,11.393c-29.115,26.445-63.371,39.668-102.758,39.668
		c-42.338,0-78.381-14.877-108.133-44.629c-29.752-29.746-44.625-65.791-44.625-108.133c0-42.059,14.873-78.035,44.625-107.93
		c29.752-29.885,65.795-44.836,108.133-44.836c39.387,0,73.643,13.293,102.758,39.879l-12.869,11.396
		c-25.604-22.646-55.563-33.971-89.889-33.971c-37.416,0-69.379,13.225-95.896,39.662c-26.52,26.449-39.773,58.383-39.773,95.799
		c0,37.553,13.254,69.561,39.773,96.002c26.518,26.449,58.48,39.664,95.896,39.664
		C1301.075,315.162,1331.034,303.844,1356.638,281.197z"/>
</g>
</svg>
