<?xml version="1.0" encoding="utf-8"?>
<!-- Generator: Adobe Illustrator 16.0.0, SVG Export Plug-In . SVG Version: 6.00 Build 0)  -->
<!DOCTYPE svg PUBLIC "-//W3C//DTD SVG 1.1//EN" "http://www.w3.org/Graphics/SVG/1.1/DTD/svg11.dtd">
<svg version="1.1" id="Layer_1" xmlns="http://www.w3.org/2000/svg" xmlns:xlink="http://www.w3.org/1999/xlink" x="0px" y="0px"
	 width="420.824px" height="546.333px" viewBox="0 0 420.824 546.333" enable-background="new 0 0 420.824 546.333"
	 xml:space="preserve">
<g>
	<path fill-rule="evenodd" clip-rule="evenodd" fill="#007EA2" d="M262.783,405.826c-8.06-1.581-16.259-2.655-24.148-4.847
		c-17.92-4.976-35.592-4.828-53.561-0.055c-8.466,2.248-17.35,3.303-26.113,3.953c-10.353,0.767-19.277-3.479-26.815-10.401
		c-4.585-4.211-9.319-8.421-13.105-13.313c-13.474-17.409-30.839-28.991-51.296-36.684c-6.472-2.434-12.483-6.445-18.202-10.455
		c-11.617-8.149-17.112-19.928-18.373-33.829c-0.636-7.001-1.332-14.007-1.614-21.026c-0.67-16.558-7.946-30.489-16.773-43.916
		c-2.973-4.523-5.441-9.385-8.081-14.122c-8.182-14.684-7.434-29.227,0.897-43.547c3.436-5.904,6.823-11.873,10.752-17.447
		c9.522-13.512,12.936-28.711,13.68-44.893c0.35-7.599,1.22-15.223,2.557-22.712c2.105-11.804,8.786-20.612,19.457-26.1
		c6.064-3.12,12.205-6.306,18.652-8.427c18.408-6.063,33.17-16.811,44.585-32.415c2.838-3.878,6.294-7.306,9.507-10.904
		c11.696-13.099,26.092-17.333,43.074-13.102c5.455,1.36,11.018,2.346,16.391,3.97c16.268,4.92,32.403,4.65,48.682-0.066
		c6.916-2.004,14.092-3.115,21.154-4.607c14.313-3.023,26.162,1.939,36.223,11.73c5.17,5.033,9.908,10.547,14.527,16.105
		c9.782,11.773,20.716,21.883,35.623,26.858c4.185,1.396,8.149,3.447,12.316,4.913c24.723,8.699,36.268,27.152,37.391,52.311
		c0.959,21.465,5.977,41.26,18.689,58.837c1.993,2.755,3.462,5.89,5.149,8.862c9.778,17.225,8.768,34.179-1.304,50.898
		c-1.763,2.927-3.38,5.96-5.334,8.755c-11.446,16.37-16.127,34.742-17.041,54.477c-0.562,12.107-1.785,24.74-10.781,33.74
		c-6.367,6.37-14.218,12.205-22.51,15.519c-20.846,8.329-38.979,19.733-52.752,37.73c-3.153,4.119-7.184,7.587-10.943,11.22
		C284.168,401.697,275.621,405.071,262.783,405.826z M35.193,199.956c-0.802,89.854,71.75,172.161,172.748,172.354
		c100.989,0.191,173.552-82.013,173.519-172.34c-0.035-95.742-79.698-172.255-172.903-172.415
		C114.985,27.396,34.521,104.091,35.193,199.956z"/>
	<path fill-rule="evenodd" clip-rule="evenodd" fill="#007EA2" d="M161.554,546.333c-10.079-6.779-18.715-12.521-27.276-18.372
		c-4.646-3.174-9.223-6.46-13.734-9.823c-8.054-6-17.022-8.552-27.078-8.5c-12.051,0.063-24.119-0.354-36.154-1.029
		c-3.882-0.218-7.672-1.934-11.518-2.913c-3.645-0.928-7.305-1.789-12.166-2.974c15.983-45.92,32.025-92.01,48.518-139.396
		c4.512,4.19,8.397,7.324,11.707,10.979c5.662,6.257,11.041,12.778,16.404,19.299c15.346,18.654,35.176,24.257,58.377,20.329
		c13.429-2.273,26.862-6.095,40.313-6.191c12.63-0.092,25.307,3.691,37.929,5.963c23.524,4.232,43.941-0.814,59.787-19.711
		c5.037-6.005,9.779-12.26,14.924-18.169c3.629-4.173,7.707-7.957,12.34-12.683c20.188,46.268,34.528,93.002,50.148,138.741
		c-7.72,5.86-14.989,7.038-22.833,7.026c-11.853-0.018-23.771-0.039-35.533,1.184c-6.563,0.681-13.257,3.109-19.181,6.141
		c-6.377,3.261-11.877,8.215-17.841,12.312c-10.146,6.972-19.305,16.116-34.042,14.365c-1.163-3.097-2.854-7.344-4.361-11.653
		c-10.356-29.593-20.59-59.227-31.104-88.764c-1.437-4.035-1.735-11.114-7.29-10.105c-3.723,0.677-7.885,6.066-9.456,10.247
		c-7.786,20.69-14.78,41.679-22.041,62.565c-2.509,7.215-4.495,14.664-7.62,21.6C169.889,533.201,165.801,539.058,161.554,546.333z"
		/>
	<path fill-rule="evenodd" clip-rule="evenodd" fill="#007EA2" d="M208.247,364.702c-86.844,0.539-165.681-68.643-165.588-164.913
		c0.092-94.617,76.63-164.873,165.883-164.723c88.715,0.148,165.176,69.992,165.283,164.714
		C373.934,296.215,294.925,365.256,208.247,364.702z M208.423,42.246c-89.33-0.828-161.97,74.197-158.729,163.287
		c3.062,84.201,72.168,153.603,160.777,152.279c93.939-1.403,159.727-79.4,156.318-163.999
		C363.244,105.868,289.332,41.4,208.423,42.246z"/>
	<g>
		<path fill="#007EA2" d="M208.241,353.762c-84.847,0-153.875-69.028-153.875-153.875c0-84.848,69.028-153.878,153.875-153.878
			c84.849,0,153.878,69.03,153.878,153.878C362.119,284.733,293.09,353.762,208.241,353.762z M208.241,86.128
			c-62.727,0-113.757,51.032-113.757,113.759s51.03,113.757,113.757,113.757c62.728,0,113.759-51.03,113.759-113.757
			S270.969,86.128,208.241,86.128z"/>
	</g>
	<g>
		<path fill="#007EA2" d="M231.475,118.763c0.858,0,1.336,1.082,1.336,2.163v121.359h21.086c0.668,0,1.145,1.298,1.145,2.38v34.18
			c0,1.73-0.477,2.163-1.145,2.163h-91.403c-0.572,0-0.954-1.947-0.954-3.029v-33.529c0-1.299,0.764-2.164,1.24-2.164h21.658
			v-67.277h-21.182c-1.049,0-1.813-0.865-1.813-2.163v-30.936c0-1.298,0.382-4.11,0.955-4.11h32.152
			c4.676,0,7.441-10.383,9.445-17.089c0.287-0.865,0.955-1.947,1.432-1.947H231.475z"/>
	</g>
</g>
</svg>
