<?xml version="1.0" encoding="utf-8"?>
<!-- Generator: Adobe Illustrator 16.0.0, SVG Export Plug-In . SVG Version: 6.00 Build 0)  -->
<!DOCTYPE svg PUBLIC "-//W3C//DTD SVG 1.1//EN" "http://www.w3.org/Graphics/SVG/1.1/DTD/svg11.dtd">
<svg version="1.1" id="Layer_1" xmlns="http://www.w3.org/2000/svg" xmlns:xlink="http://www.w3.org/1999/xlink" x="0px" y="0px"
	 width="497.803px" height="490.025px" viewBox="0 0 497.803 490.025" enable-background="new 0 0 497.803 490.025"
	 xml:space="preserve">
<g>
	<g>
		<path fill="none" stroke="#007EA2" stroke-width="5.6693" stroke-miterlimit="10" d="M16.185,176.369h64.852
			c2.139,1.517,5.257,13.996,9.358,37.439l19.389,102.289h3.342c0.892,0,8.024-36.547,21.396-109.645
			c3.207-20.055,5.659-30.084,7.354-30.084h71.536l2.004,2.006v185.191c0.357,9.807-0.98,14.26-4.012,13.371h-37.439
			c-3.119,0-4.679-3.564-4.679-10.697V240.551l-1.872-2.676h-2.807c-2.141,0-11.947,45.908-29.418,137.725l-2.004,1.338H91.062
			c-2.138,0-11.946-45.686-29.416-137.055l-2.673-2.408c-3.033,0.09-4.593,1.115-4.682,3.076v129.031
			c0.18,5.082-0.935,7.531-3.343,7.355H12.843c-1.785-0.623-2.675-2.629-2.675-6.018V182.387
			C10.703,178.375,12.709,176.369,16.185,176.369z"/>
		<path fill="none" stroke="#007EA2" stroke-width="5.6693" stroke-miterlimit="10" d="M271.441,176.369h85.574l2.008,2.006v31.42
			c0,2.41-0.895,3.969-2.675,4.684H295.51c-7.133,2.049-10.697,5.836-10.697,11.363v14.041c0,7.398,6.686,12.078,20.057,14.039
			c3.387,0,17.426,3.342,42.121,10.029c12.033,7.219,18.05,19.252,18.05,36.102v28.08c0,22.016-9.583,37.17-28.749,45.461
			l-16.714,3.344h-75.548c-2.405,0-4.413-1.338-6.017-4.014v-33.426l4.012-3.342l4.681,0.666h58.834
			c7.13-1.424,10.696-4.99,10.696-10.695V309.41c0-6.059-2.899-10.07-8.692-12.033c-40.113-8.467-60.171-14.484-60.171-18.051
			c-7.576-6.504-11.364-16.758-11.364-30.754v-28.748c0-18.361,9.135-31.957,27.41-40.78L271.441,176.369z"/>
		<path fill="none" stroke="#007EA2" stroke-width="5.6693" stroke-miterlimit="10" d="M416.182,228.686h55.84
			c2.967,0,4.449,1.813,4.449,5.438v20.754c0,3.625-1.814,5.438-5.438,5.438h-46.452c-2.569-0.133-3.888,1.186-3.952,3.951
			l-0.099,76.697c0.396,3.162,2.042,4.939,4.94,5.336h46.551c2.967,0,4.449,1.154,4.449,3.459v23.227
			c0,2.635-0.989,3.953-2.967,3.953h-63.252c-6.59-1.451-12.685-4.91-18.285-10.379c-6.262-6.852-9.389-15.25-9.389-25.203
			l-0.1-78.078l0.1-2.471c0-6.785,3.127-14.033,9.389-21.742c7.447-6.588,15.022-9.883,22.732-9.883L416.182,228.686z"/>
	</g>
	<g>
		<path fill="#007EA2" d="M477.149,163.431c-2.672-2.528-7.04-3.295-10.684-4.754c-52.641-21.037-105.674-41.158-157.812-63.376
			c-39.787-16.955-77.909-17.061-117.705,0.041c-55.273,23.756-111.549,45.18-167.062,68.395
			c-6.306,2.636-13.829,10.154-14.15,15.797C9.669,180.744,11,182.094,11,183.494v-1.146c0-4.013,1.709-5.349,5.185-5.349h64.852
			c2.139,3,5.257,13.662,9.358,37.104l2.898,15.118c3.29,1.465,6.582,2.848,9.873,4.314c8.129,3.621,16.243,7.233,24.361,10.88
			c2.102-11.318,4.434-23.649,6.993-37.647c3.207-20.053,5.659-29.77,7.354-29.77h71.536l4.59,1.336v102.516
			c10,2.707,19.383,4.277,29.688,4.893c4.354,0.262,7.948,0.123,12.116-0.285c-7.846-2.535-11.114-4.594-11.114-6.17
			c-7.576-6.506-10.69-16.758-10.69-30.756v-28.746c0-18.363,8.139-31.622,26.412-40.446l7.029-2.341h85.574l2.984,1.336v31.422
			c0,2.408-1.871,5.242-3.651,5.242H295.51c-7.133,3-9.51,5.277-9.51,10.803v14.043c0,7.398,6.09,12.078,19.463,14.037
			c2.527,0,10.69,1.863,25.08,5.584c0.738-0.309,1.32-0.629,2.057-0.932c27.684-11.318,54.781-24.722,83.455-37.308
			c0.109,2.299,0.129,5.772,0.219,5.772h10.301c-0.662-6,2.959-12.636,11.713-15.884c13.468-5.004,26.792-10.337,39.341-17.278
			c5.432-3.008,12.472-9.874,12.11-14.588C489.301,173.566,482.188,168.192,477.149,163.431z"/>
		<path fill="#007EA2" d="M376.322,283.385c0.082-10.059,0.018-20.117,0.018-30.934c-9.592,4.326-18.371,8.443-27.41,12.473
			c11.016,7.305,17.07,18.967,17.07,35.09v28.08c0,22.018-10.063,37.722-29.229,46.013L319.577,378h-75.548
			c-2.405,0-4.029-2.439-6.029-5.113v-33.428l4.02-2.733l4.686,1.274h58.834c7.13-3,11.461-6.205,11.461-11.91v-16.717
			c0-6.059-3.28-10.072-9.073-12.033c-7.96-1.682-13.988-3.26-20.369-4.744c-23.699,8.229-47.558,9.732-69.558,3.758v67.174
			c0,9.807-3.566,14.473-6.598,14.473h-37.439c-3.119,0-4.963-4.666-4.963-11.797v-89.836c-3-2.166-8.595-4.297-13.004-6.381
			c-4.936,22.928-11.845,58.098-20.88,105.574l0.028,0.006c21.35,12.33,44.255,21.363,68.754,26.588
			c57.12,12.176,108.92-0.287,155.48-35.094c11.192-8.369,18.375-18.264,16.791-34.084
			C374.535,316.617,376.189,299.93,376.322,283.385z"/>
		<path fill="#007EA2" d="M102.456,245.398c0,10.631-0.022,21.688-0.043,32.257l7.37,39.345h3.342
			c0.66,0,4.749-20.542,12.256-60.638C117.76,252.921,110.112,248.984,102.456,245.398z"/>
		<path fill="#007EA2" d="M164.605,238c-0.822,0-2.932,6.747-6.023,20.341c3.516,1.543,7.418,2.991,10.418,4.513v-22.342
			L167.412,238H164.605z"/>
		<path fill="#007EA2" d="M420.595,290.592l-0.058,45.037c6.283-1.961,12.079-6.219,13.824-11.605
			c1.836,1.309,3.594,2.559,6.77,4.816c-2.996-10.813-5.263-20.043-8.135-29.078C430.938,293.287,425.172,290.555,420.595,290.592z"
			/>
		<path fill="#007EA2" d="M420.603,285.783c0.161-0.025,0.293-0.018,0.46-0.045c9.439,2.834,12.388-2.711,12.828-11.615
			c0.416-8.346-3.185-11.787-11.546-11.48c-0.497,0.018-0.991,0.039-1.476,0.066c-0.125,0.455-0.228,0.938-0.24,1.52
			L420.603,285.783z"/>
	</g>
</g>
</svg>
